<?xml version="1.0" standalone="no"?>
<!DOCTYPE svg PUBLIC "-//W3C//DTD SVG 20010904//EN"
 "http://www.w3.org/TR/2001/REC-SVG-20010904/DTD/svg10.dtd">
<svg version="1.0" xmlns="http://www.w3.org/2000/svg"
 width="950.000000pt" height="534.000000pt" viewBox="0 0 950.000000 534.000000"
 preserveAspectRatio="xMidYMid meet">

<g transform="translate(0.000000,534.000000) scale(0.100000,-0.100000)"
fill="#000000" stroke="none">
<path d="M1021 5313 c-24 -14 -76 -38 -115 -54 -55 -21 -403 -192 -521 -255
-92 -49 -146 -74 -162 -74 -11 0 -35 -10 -54 -23 -58 -39 -119 -67 -144 -67
-23 0 -25 -3 -25 -50 0 -54 1 -55 28 -40 26 15 262 110 302 122 19 5 96 40
170 78 74 37 145 70 156 74 12 4 57 26 99 51 43 24 92 47 109 51 17 3 78 30
136 59 58 29 116 56 129 60 14 4 54 23 90 41 36 19 78 34 93 34 15 0 30 5 33
10 4 6 -44 10 -137 10 -137 0 -145 -1 -187 -27z"/>
<path d="M1809 5313 c-16 -40 -17 -155 -2 -160 7 -2 21 13 32 34 31 59 104
133 132 133 31 0 79 -44 79 -73 0 -22 3 -23 83 -21 l82 2 15 40 c9 22 19 44
23 48 20 21 -10 24 -213 24 l-220 0 -11 -27z"/>
<path d="M2342 5328 c-15 -19 -42 -88 -42 -107 0 -10 25 -30 66 -51 76 -39 78
-39 139 37 22 27 60 63 84 79 76 50 69 54 -92 54 -104 0 -147 -4 -155 -12z"/>
<path d="M2722 5317 c-12 -13 -22 -31 -22 -39 0 -9 -24 -30 -54 -47 -54 -31
-115 -106 -99 -122 4 -4 54 -13 110 -18 93 -10 108 -9 170 10 177 55 256 129
223 210 l-12 29 -147 0 c-141 0 -148 -1 -169 -23z"/>
<path d="M3170 5326 c0 -21 -51 -136 -60 -136 -5 0 -32 -20 -61 -45 -29 -25
-61 -45 -70 -45 -10 0 -20 -4 -24 -9 -3 -5 -31 -19 -62 -31 -67 -25 -196 -29
-307 -10 -60 11 -73 10 -108 -6 -21 -10 -44 -26 -49 -36 -11 -20 -48 -25 -50
-5 -1 6 -2 21 -3 32 0 12 -12 23 -31 29 -16 5 -55 20 -85 35 -47 22 -67 26
-131 24 -79 -3 -93 3 -100 41 -5 23 -19 29 -38 17 -18 -12 -34 -177 -19 -205
6 -11 23 -30 39 -44 27 -22 38 -60 23 -75 -4 -4 -20 1 -35 10 -23 14 -29 25
-29 50 0 39 -12 42 -30 9 -7 -15 -23 -26 -39 -28 -24 -3 -26 -7 -23 -41 3 -27
-1 -39 -12 -43 -21 -8 -20 -60 3 -99 11 -19 32 -35 57 -43 21 -7 53 -26 69
-43 35 -33 45 -36 45 -14 0 8 4 15 8 15 5 0 20 21 35 48 55 101 152 110 248
23 37 -35 40 -40 28 -60 -8 -11 -30 -26 -49 -33 -34 -11 -70 -38 -113 -85 -25
-28 -52 -29 -94 -4 -27 17 -36 18 -63 8 -32 -12 -34 -11 -79 39 -48 53 -98 91
-107 81 -3 -3 10 -22 29 -44 19 -21 46 -60 60 -88 23 -46 117 -150 166 -185
l22 -15 -25 -72 c-14 -40 -32 -86 -42 -102 -23 -39 -82 -71 -146 -78 -40 -4
-63 -14 -96 -41 -83 -66 -99 -95 -68 -121 38 -32 206 -18 304 25 18 8 50 14
71 14 30 0 59 13 134 63 52 34 97 70 100 79 3 10 -8 38 -25 63 -17 25 -28 49
-24 52 7 7 109 -13 196 -40 129 -39 190 -108 155 -176 -8 -17 -24 -35 -34 -40
-13 -7 -20 -26 -24 -66 -10 -103 -75 -178 -223 -261 -119 -66 -219 -86 -379
-74 -60 5 -129 16 -153 24 -41 15 -45 15 -72 -5 -35 -26 -46 -59 -20 -59 10 0
20 4 22 10 2 5 17 12 35 16 29 6 31 4 29 -18 -2 -13 -10 -35 -19 -48 -21 -33
-25 -84 -8 -104 7 -9 10 -16 7 -16 -4 0 -1 -6 6 -12 9 -9 57 -14 153 -15 340
-4 633 -107 828 -291 l37 -36 0 176 c0 96 4 199 10 228 31 163 178 330 380
431 181 90 370 131 600 131 308 -1 533 -75 804 -266 15 -10 29 -16 32 -14 2 3
7 75 10 159 3 85 12 178 19 206 8 31 9 55 4 59 -15 9 -10 34 6 34 8 0 15 6 15
14 0 7 9 16 20 19 11 3 24 17 30 32 9 22 110 130 110 117 0 -2 7 3 15 12 8 8
15 22 15 30 0 9 4 16 10 16 5 0 16 16 24 34 8 19 24 41 36 48 12 7 28 29 37
48 19 40 82 110 99 110 19 0 35 -26 38 -66 3 -28 9 -40 25 -46 14 -5 20 -4 16
2 -7 12 15 13 33 1 7 -4 71 2 145 15 73 13 150 23 173 24 22 0 45 5 52 12 35
35 -19 115 -84 125 -58 9 -73 19 -67 45 8 32 33 58 55 58 11 0 16 5 13 10 -4
6 -13 7 -23 1 -12 -6 -29 -3 -54 9 -37 18 -39 17 -120 -6 -112 -33 -126 -32
-143 10 -11 25 -12 42 -4 71 11 40 5 62 -6 23 -14 -47 -38 -88 -50 -88 -7 0
-15 18 -18 41 -3 22 -8 43 -11 46 -3 3 -21 -8 -40 -25 -23 -20 -42 -29 -55
-25 -35 9 -65 -5 -84 -37 -15 -24 -23 -29 -40 -24 -33 9 -48 33 -36 55 5 11 9
35 7 55 -2 30 3 41 32 66 32 30 35 30 107 24 41 -3 83 -10 93 -16 17 -9 21 -6
26 16 17 68 -15 190 -65 249 -10 11 -23 39 -30 63 -10 35 -16 42 -38 42 -20 0
-24 -4 -20 -20 3 -13 0 -20 -9 -20 -21 0 -17 -54 6 -75 27 -24 25 -57 -5 -85
-14 -13 -25 -31 -25 -40 0 -17 -18 -40 -32 -40 -12 0 -10 34 3 47 5 5 9 32 7
59 -4 68 -26 70 -88 9 -34 -34 -54 -46 -71 -44 -13 2 -30 0 -37 -5 -7 -4 -25
-5 -39 -2 -40 11 -83 -14 -83 -47 0 -28 -14 -37 -75 -53 -20 -5 -25 -2 -25 13
0 11 -8 27 -18 37 -14 12 -19 31 -19 79 -1 57 2 65 33 99 35 39 44 64 21 55
-8 -3 -20 3 -28 14 -12 17 -27 19 -152 19 -127 0 -138 -1 -126 -16 12 -14 11
-16 -6 -12 -11 2 -19 9 -18 15 2 8 -60 12 -215 12 l-217 1 -24 -37 c-14 -21
-32 -46 -40 -56 -9 -10 -14 -31 -13 -45 2 -18 -6 -37 -24 -56 -26 -27 -28 -28
-41 -10 -28 38 -12 137 29 182 l21 22 -236 0 c-199 0 -237 -2 -237 -14z m141
-84 c33 -28 19 -57 -24 -48 -36 7 -58 31 -50 52 7 20 47 17 74 -4z m1103 -35
c13 -21 -7 -39 -38 -35 -28 4 -45 36 -26 48 21 14 51 8 64 -13z m320 -168 c50
-55 66 -98 47 -128 -7 -11 -13 -11 -32 -1 -13 7 -26 16 -29 19 -3 4 -17 14
-33 24 -15 10 -39 36 -53 59 -25 40 -26 42 -8 55 34 25 69 16 108 -28z m-1009
-30 c14 -22 -7 -57 -70 -119 -56 -56 -64 -69 -59 -92 4 -21 -1 -34 -20 -53
-38 -38 -49 -24 -41 48 10 86 22 108 93 171 62 55 85 66 97 45z m875 -34 c0
-8 -7 -15 -15 -15 -16 0 -20 12 -8 23 11 12 23 8 23 -8z m-125 -82 c88 -59 68
-93 -36 -62 -31 10 -45 9 -79 -5 -23 -9 -46 -14 -51 -11 -16 11 -10 41 14 62
56 51 95 55 152 16z m-2230 -22 c7 -12 -31 -25 -45 -16 -5 3 -10 10 -10 16 0
12 47 12 55 0z m2489 -46 c20 -14 42 -25 48 -25 20 0 78 -51 78 -68 -1 -26
-46 -55 -73 -46 -12 4 -34 7 -49 6 -31 -3 -37 12 -12 26 20 11 10 32 -14 32
-10 0 -35 9 -56 21 -46 24 -71 19 -60 -13 6 -21 6 -22 -12 -8 -45 36 -57 70
-25 70 10 0 34 7 52 15 49 21 81 18 123 -10z m256 -19 c0 -3 -4 -8 -10 -11 -5
-3 -10 -1 -10 4 0 6 5 11 10 11 6 0 10 -2 10 -4z m-2125 -161 c0 -12 -12 -26
-30 -35 -16 -8 -48 -32 -69 -52 -22 -21 -46 -38 -53 -38 -26 0 -11 76 21 105
51 46 131 58 131 20z m-255 -55 c13 -8 12 -14 -5 -47 -25 -48 -49 -50 -53 -5
-5 51 22 75 58 52z m2607 -66 c-3 -3 -12 -4 -19 -1 -8 3 -5 6 6 6 11 1 17 -2
13 -5z m-1537 -94 c0 -5 -7 -10 -16 -10 -8 0 -12 5 -9 10 3 6 10 10 16 10 5 0
9 -4 9 -10z m-868 -107 c60 -22 69 -34 28 -32 -19 1 -55 -6 -79 -15 -24 -9
-64 -19 -90 -22 -25 -3 -57 -8 -70 -10 -24 -5 -24 -6 -5 -23 45 -43 350 -130
529 -151 55 -7 103 -14 106 -16 3 -2 39 -6 78 -9 70 -5 113 -17 95 -27 -31
-17 -435 42 -579 83 -135 39 -333 115 -355 136 -13 12 -8 13 38 7 l52 -7 0 32
c0 25 7 36 33 51 41 26 157 27 219 3z m-409 -38 c42 -17 63 -41 26 -30 -22 7
-78 45 -67 45 3 0 22 -7 41 -15z m1174 -121 c2 -6 -5 -14 -17 -17 -11 -3 -25
-19 -31 -36 -6 -17 -19 -36 -29 -41 -12 -6 -16 -17 -13 -35 5 -21 2 -25 -20
-25 -33 0 -45 19 -23 36 10 7 15 17 12 22 -7 12 18 75 36 89 27 22 79 26 85 7z
m1113 -73 c0 -5 -11 -11 -25 -13 -26 -5 -35 6 -12 15 20 9 37 8 37 -2z"/>
<path d="M4582 5331 c-18 -11 68 -54 99 -49 28 4 38 28 12 28 -11 0 -28 7 -39
15 -21 16 -52 19 -72 6z"/>
<path d="M5291 5316 c-13 -13 -43 -37 -68 -53 l-45 -28 6 -50 c3 -27 8 -87 12
-133 l7 -82 23 15 c29 19 67 19 128 1 43 -13 49 -13 65 3 16 16 62 33 166 62
22 7 59 20 82 30 24 11 54 19 68 19 17 0 45 18 84 54 73 67 111 76 191 46 30
-12 61 -22 68 -24 59 -11 26 -123 -48 -161 -16 -8 -55 -15 -87 -15 -32 -1 -69
-7 -83 -15 -38 -22 -58 -18 -90 16 l-29 32 -7 -39 c-3 -21 -11 -45 -17 -52 -7
-9 -4 -18 8 -32 17 -19 17 -20 -6 -39 -13 -11 -36 -23 -51 -26 -16 -4 -28 -11
-28 -16 0 -13 53 -11 87 2 63 25 89 27 114 8 21 -16 22 -21 12 -38 -18 -28
-16 -76 2 -95 8 -8 15 -19 15 -25 0 -7 8 -7 25 -1 14 5 25 6 25 3 0 -4 5 -2
12 5 20 20 40 15 28 -7 -6 -12 -26 -22 -50 -26 -22 -4 -40 -10 -40 -15 0 -5
-3 -16 -7 -26 -5 -14 -3 -16 18 -10 13 4 39 7 58 6 18 0 45 7 59 16 14 9 61
21 106 26 44 5 92 16 107 26 115 73 120 75 199 80 l77 4 32 49 c47 68 128 145
186 178 85 48 313 121 417 133 250 28 600 -27 801 -128 150 -76 309 -220 360
-327 51 -108 78 -257 56 -314 -4 -11 -11 -60 -15 -107 -6 -83 -6 -86 14 -86
33 0 34 -17 2 -30 -17 -7 -30 -15 -30 -19 -1 -30 -33 -147 -49 -178 -11 -22
-58 -76 -105 -120 -103 -97 -190 -144 -346 -185 -25 -6 -52 -13 -60 -16 -8 -2
-64 -8 -125 -13 -60 -5 -117 -10 -125 -11 -8 -1 -44 1 -80 5 -36 4 -85 9 -110
12 -53 5 -109 14 -130 23 -8 3 -22 7 -30 8 -36 6 -138 36 -164 50 -16 7 -33
14 -37 14 -5 0 -37 14 -71 30 -34 17 -67 30 -75 30 -7 0 -13 4 -13 9 0 5 -14
14 -31 20 -17 6 -28 15 -25 20 5 8 -15 21 -33 21 -8 0 -37 -185 -46 -298 -4
-40 -13 -96 -22 -125 -19 -65 -60 -147 -73 -147 -6 0 -10 -6 -10 -13 0 -22
-92 -111 -153 -147 -192 -113 -347 -155 -607 -164 -86 -3 -121 0 -137 10 -14
9 -23 10 -25 3 -5 -16 -98 0 -98 17 0 8 -5 14 -11 14 -5 0 -7 -5 -3 -11 8 -14
-64 -3 -81 11 -6 5 -20 9 -30 9 -30 -1 -75 10 -106 27 -16 8 -32 15 -36 15
-14 2 -52 18 -95 40 -110 56 -163 87 -249 145 l-47 31 -7 -41 c-4 -22 -8 -79
-11 -126 -7 -178 -27 -248 -99 -350 -43 -60 -140 -156 -167 -166 -10 -3 -18
-10 -18 -15 0 -5 -6 -9 -14 -9 -8 0 -16 -7 -20 -15 -3 -8 -15 -15 -26 -15 -12
0 -18 -4 -15 -10 4 -6 -5 -10 -19 -10 -14 0 -26 -4 -26 -8 0 -4 -16 -14 -35
-21 -19 -7 -35 -17 -35 -22 0 -5 -8 -9 -17 -9 -25 0 -163 -30 -188 -41 -57
-25 -401 -33 -480 -11 -22 6 -104 27 -182 46 -121 30 -267 84 -283 106 -3 3
-30 23 -60 43 -30 20 -82 63 -115 95 l-60 59 3 -226 c2 -197 0 -235 -17 -299
-18 -70 -83 -192 -128 -240 -12 -13 -25 -33 -28 -43 -4 -11 -12 -19 -19 -19
-7 0 -29 -18 -49 -40 -19 -22 -42 -40 -50 -40 -8 0 -21 -7 -28 -17 -15 -18
-230 -123 -252 -123 -8 0 -17 -3 -21 -7 -10 -10 -91 -33 -156 -43 -30 -5 -82
-14 -115 -20 -33 -5 -105 -9 -160 -9 -55 1 -109 2 -120 2 -38 -1 -190 26 -240
41 -27 9 -59 16 -70 16 -39 0 -225 87 -310 144 -101 69 -235 197 -235 225 0 6
-4 11 -9 11 -4 0 -6 -11 -3 -25 2 -14 8 -25 13 -25 5 0 9 -7 9 -15 0 -8 3 -14
8 -13 4 1 24 -15 45 -35 31 -31 38 -44 36 -70 -2 -18 0 -38 4 -44 4 -6 5 -30
2 -52 -3 -27 0 -45 9 -54 8 -8 14 -33 14 -60 -1 -25 5 -53 12 -62 7 -8 9 -15
4 -15 -4 0 -3 -5 4 -12 7 -7 12 -20 12 -30 0 -10 5 -18 11 -18 8 0 7 -5 -1
-15 -11 -13 -9 -19 7 -38 12 -12 24 -36 27 -53 4 -17 20 -44 36 -59 16 -15 27
-32 24 -36 -6 -10 20 -52 53 -89 13 -14 23 -28 23 -32 0 -5 6 -8 14 -8 7 0 19
-7 26 -15 22 -26 118 -67 140 -60 15 5 18 3 14 -9 -6 -16 -38 -14 -76 5 -30
16 -68 29 -68 23 0 -3 26 -16 58 -30 31 -14 64 -29 72 -33 9 -5 30 -12 48 -16
18 -3 32 -10 32 -15 0 -4 26 -16 57 -25 32 -9 73 -21 91 -26 18 -6 61 -8 95
-5 45 4 56 3 42 -4 -14 -7 28 -9 135 -6 133 4 202 12 340 41 14 2 0 -4 -30
-15 l-55 -20 67 3 c37 2 65 0 63 -4 -3 -3 8 -4 23 -1 26 4 27 4 7 -13 -19 -16
-19 -16 15 -12 19 3 40 6 45 7 30 7 57 -1 52 -15 -5 -11 0 -13 23 -8 19 3 30
1 30 -6 0 -7 7 -8 23 -1 12 5 38 11 58 14 50 9 100 65 131 151 41 112 42 114
8 77 -24 -25 -29 -39 -24 -60 4 -22 3 -24 -6 -12 -9 12 -11 10 -6 -10 3 -14 1
-32 -5 -40 -7 -11 -9 3 -5 45 3 33 5 63 5 68 1 4 8 7 16 7 10 0 15 10 15 28 0
20 3 23 10 12 7 -11 11 -9 19 12 5 14 14 27 20 29 33 12 121 517 136 789 4 63
11 132 17 154 9 35 10 37 23 20 8 -11 15 -33 15 -51 0 -21 8 -38 25 -51 13
-11 22 -22 19 -24 -7 -8 28 -128 38 -128 4 0 8 -5 8 -10 0 -6 20 -30 45 -53
25 -24 45 -48 45 -54 0 -13 43 -53 57 -53 6 0 13 -9 16 -20 3 -11 13 -23 24
-26 10 -3 26 -10 35 -15 26 -13 45 -11 52 7 6 16 16 15 76 -8 14 -5 25 -8 26
-6 0 2 8 -3 17 -11 11 -9 17 -10 17 -2 0 6 7 11 16 11 10 0 14 -6 11 -14 -7
-17 35 -27 76 -19 16 3 27 1 27 -6 0 -6 8 -11 18 -12 14 0 14 -2 -3 -8 -30
-12 51 -22 225 -27 102 -4 140 -8 130 -15 -22 -15 88 -3 185 21 44 10 81 14
83 9 2 -5 18 -2 36 5 23 10 46 11 77 6 49 -9 69 0 70 34 0 20 1 20 8 1 5 -11
4 -21 0 -23 -12 -5 -11 -42 0 -42 6 0 13 5 16 10 3 6 19 10 34 10 16 0 34 6
40 14 43 51 146 429 204 746 19 102 36 178 40 170 4 -12 6 -11 6 3 2 44 18 8
35 -80 10 -54 27 -133 37 -176 11 -43 17 -82 14 -87 -4 -6 0 -10 7 -10 9 -1 7
-5 -4 -14 -19 -14 -25 -46 -9 -46 14 0 10 -51 -5 -57 -11 -4 -13 -18 -9 -55 7
-58 -6 -57 -25 1 -7 23 -18 41 -25 41 -48 0 -135 -196 -135 -305 0 -22 14 -78
32 -124 25 -65 48 -102 98 -160 36 -41 86 -90 110 -109 25 -18 53 -40 63 -48
9 -8 21 -14 27 -14 5 0 26 -11 46 -25 20 -14 45 -25 56 -25 11 0 16 -5 13 -10
-9 -15 14 -40 36 -40 10 0 29 -5 43 -12 20 -9 23 -14 15 -25 -9 -10 -7 -13 8
-13 11 0 28 -9 39 -21 17 -19 17 -21 2 -30 -22 -12 -12 -39 14 -39 10 0 16 -5
13 -10 -3 -6 0 -17 8 -25 13 -12 25 -13 72 -4 65 12 76 7 50 -21 -18 -19 -17
-20 3 -20 11 0 24 5 27 10 8 13 85 13 105 0 10 -6 11 -10 3 -10 -7 0 -13 -9
-13 -20 0 -12 7 -20 16 -20 19 0 43 -28 44 -51 0 -21 -39 -56 -70 -62 -23 -4
-23 -4 4 -6 23 -1 27 -4 18 -13 -17 -17 -15 -38 3 -38 26 0 16 -15 -17 -28
-41 -15 -29 -27 14 -13 18 6 45 7 61 3 l28 -7 -48 -37 c-51 -39 -71 -48 -143
-69 -25 -7 -49 -16 -54 -21 -6 -4 -19 -8 -29 -8 -11 0 -35 -13 -54 -30 -18
-16 -39 -30 -46 -30 -7 0 -32 -9 -55 -20 -22 -11 -47 -20 -54 -20 -8 0 -24 -7
-36 -16 -28 -20 -43 -10 -16 11 21 16 13 20 -14 6 -27 -15 -55 -24 -82 -27
-14 -2 -26 -8 -28 -14 -2 -5 -11 -10 -20 -10 -9 0 -29 -7 -44 -14 -16 -8 -28
-11 -28 -5 0 5 -4 9 -10 9 -5 0 -10 -6 -10 -13 0 -13 -146 -77 -176 -77 -8 0
-14 -5 -14 -11 0 -7 7 -8 18 -4 19 8 114 35 122 34 10 0 -78 -42 -160 -76 -47
-19 -105 -43 -130 -54 -119 -54 -136 -62 -155 -70 -43 -17 -100 -28 -122 -23
-16 4 -23 2 -23 -9 0 -8 -7 -17 -14 -20 -10 -4 -13 -1 -9 9 5 14 3 14 -14 3
-15 -9 -30 -10 -62 -2 -22 6 -39 7 -36 3 3 -4 -4 -10 -14 -13 -11 -3 -22 1
-25 8 -4 11 7 18 44 29 28 8 70 30 70 37 0 5 -13 6 -30 3 -36 -8 -38 -2 -8 26
24 22 14 26 -29 9 -22 -8 -24 -12 -13 -19 13 -8 13 -10 -1 -10 -8 0 -20 5 -27
12 -8 8 -22 7 -56 -6 -25 -10 -50 -15 -55 -11 -11 6 -159 -53 -178 -71 -16
-16 2 -23 43 -18 16 2 21 1 12 -2 -21 -6 -23 -20 -5 -28 6 -3 -1 -4 -16 -2
-21 2 -27 0 -23 -10 3 -8 -1 -14 -9 -14 -8 0 -15 -6 -15 -14 0 -8 -10 -17 -22
-20 -13 -3 -1 -3 26 -2 l48 4 -28 -19 c-28 -18 24 -19 2393 -19 2303 0 2422 1
2426 17 4 17 5 17 6 1 1 -17 28 -18 416 -18 l415 0 0 1351 c0 1283 -1 1351
-17 1344 -10 -4 -47 -17 -83 -30 -36 -12 -108 -41 -160 -64 -52 -24 -151 -65
-220 -92 -185 -72 -249 -107 -311 -169 -80 -79 -102 -142 -99 -275 4 -150 2
-185 -12 -203 -7 -8 -56 -35 -108 -59 -52 -24 -102 -48 -111 -53 -9 -5 -34
-12 -55 -16 -22 -3 -50 -12 -64 -20 -30 -15 -88 -34 -106 -34 -20 0 -17 18 4
23 16 4 16 5 0 6 -24 1 -23 17 2 38 11 10 20 28 20 40 0 13 9 32 20 43 27 27
26 30 -15 23 -48 -8 -69 2 -56 26 9 16 6 20 -17 27 -15 4 -34 8 -42 8 -8 1
-16 11 -18 23 -3 17 -11 23 -40 25 -32 3 -37 6 -34 26 3 19 -1 22 -32 22 -40
0 -43 5 -20 31 20 22 12 49 -16 49 -17 0 -20 6 -20 41 0 22 -4 38 -9 34 -12
-7 -13 103 -1 125 5 10 5 31 0 51 -5 19 -12 51 -15 71 -3 20 -21 59 -40 87
-19 28 -35 55 -35 60 0 5 25 65 56 133 120 264 157 347 204 463 53 130 116
316 150 435 11 41 30 104 42 140 11 36 22 76 24 90 8 69 29 152 42 163 17 14
72 35 127 48 22 5 51 18 65 28 32 23 71 33 89 22 16 -10 -77 -56 -159 -77 -30
-8 -61 -21 -70 -28 -8 -7 -23 -16 -32 -19 -10 -4 -18 -14 -18 -23 0 -11 5 -14
18 -9 9 4 32 9 51 12 31 6 34 4 26 -13 -22 -53 -19 -60 35 -77 59 -19 88 -21
110 -7 12 7 9 13 -14 31 l-29 23 23 8 c16 6 26 5 31 -3 5 -9 11 -8 22 3 9 8
34 18 56 22 43 7 54 24 21 33 -11 3 -17 9 -14 14 3 5 -3 9 -13 9 -17 1 -17 1
0 11 13 8 21 6 33 -5 8 -9 27 -16 42 -16 32 0 75 21 74 35 0 6 6 17 13 25 7 8
14 18 14 23 1 19 20 34 61 47 31 10 39 16 25 18 -37 7 -37 20 -2 31 40 14 84
19 209 27 75 5 89 4 94 -10 3 -9 1 -23 -6 -30 -6 -9 -11 -43 -10 -83 1 -37 -1
-86 -5 -108 -7 -41 -40 -117 -64 -147 -13 -16 -12 -18 13 -18 15 0 37 7 50 15
13 9 52 23 87 32 35 8 78 26 94 38 17 12 56 28 88 35 l57 11 0 715 0 714 -410
0 c-225 0 -410 -2 -410 -4 0 -2 7 -17 15 -32 29 -57 24 -62 -72 -66 -99 -4
-148 3 -172 27 -15 14 -15 18 1 45 l17 30 -544 0 -545 0 0 -28 c0 -20 -7 -33
-24 -42 -31 -16 -71 -2 -112 41 -21 22 -37 29 -65 29 -39 0 -49 -14 -49 -68 0
-29 -60 -92 -86 -92 -11 0 -25 4 -32 9 -14 8 -8 24 41 116 l17 30 -267 3
c-146 1 -268 0 -271 -2 -2 -3 8 -20 22 -39 26 -33 35 -77 17 -77 -6 0 -22 -11
-37 -25 -33 -31 -38 -31 -64 -2 -34 35 -51 75 -48 110 l3 32 -54 3 c-43 2 -61
-1 -82 -17 -35 -26 -64 -27 -91 -1 -20 18 -36 20 -155 20 l-132 0 -83 -53
c-91 -58 -164 -89 -218 -91 -33 -1 -35 1 -34 29 0 17 4 38 9 48 7 17 4 18 -30
11 -30 -5 -37 -4 -33 7 3 10 24 14 69 16 102 2 104 2 125 18 17 13 -4 14 -192
15 -210 0 -211 0 -233 -24z m3944 -25 c-7 -13 -62 -24 -75 -16 -20 12 1 25 41
25 22 0 38 -4 34 -9z m-2668 -226 c13 -9 20 -22 17 -30 -6 -14 -135 -106 -167
-118 -11 -4 -25 1 -37 13 -30 30 -31 29 50 101 57 51 99 61 137 34z m2690 -44
c74 -47 98 -78 91 -123 -2 -19 -9 -23 -41 -24 -21 -1 -43 -6 -50 -13 -13 -13
-88 -15 -102 -3 -10 8 -104 46 -142 57 -30 8 -35 30 -12 58 10 14 19 36 19 50
0 30 15 44 55 50 59 9 109 -5 182 -52z m-343 -77 c8 -22 -1 -34 -28 -34 -30 0
-37 9 -25 31 12 23 45 25 53 3z m496 -174 c0 -5 -4 -10 -9 -10 -6 0 -13 5 -16
10 -3 6 1 10 9 10 9 0 16 -4 16 -10z m-800 -470 c0 -5 -5 -10 -11 -10 -5 0 -7
5 -4 10 3 6 8 10 11 10 2 0 4 -4 4 -10z m-2054 -1547 c3 -34 2 -35 -13 -21
-11 11 -13 25 -9 43 9 35 18 26 22 -22z m-35 -243 c4 -34 -10 -72 -24 -67 -17
5 -20 57 -7 93 9 23 13 26 20 14 4 -8 9 -26 11 -40z m-1816 -61 c11 -16 1 -19
-13 -3 -7 8 -8 14 -3 14 5 0 13 -5 16 -11z m-4 -152 c-10 -9 -11 -8 -5 6 3 10
9 15 12 12 3 -3 0 -11 -7 -18z m1774 -163 c56 -54 141 -114 162 -114 11 0 31
-13 45 -29 15 -16 60 -45 102 -65 42 -20 76 -42 76 -47 0 -6 7 -8 16 -5 10 4
27 -5 45 -23 30 -31 30 -55 1 -77 -23 -17 1 -25 36 -12 25 10 34 9 56 -6 24
-15 25 -18 11 -32 -17 -17 -12 -34 11 -34 17 0 17 -1 5 -33 -11 -30 5 -41 45
-31 20 5 24 3 24 -18 0 -13 -6 -30 -12 -37 -11 -10 -9 -15 9 -29 17 -12 20
-21 13 -32 -13 -21 -12 -43 1 -34 7 4 10 1 7 -7 -2 -8 -22 -23 -45 -34 -47
-23 -93 -64 -93 -83 0 -9 9 -7 29 7 16 12 34 21 41 21 6 0 36 11 66 25 49 22
58 24 87 12 32 -13 32 -14 10 -26 -18 -9 -23 -9 -23 1 0 6 -9 2 -20 -10 -11
-12 -20 -25 -20 -31 0 -12 -29 -23 -41 -15 -5 3 -9 -2 -9 -10 0 -9 -9 -16 -20
-16 -11 0 -20 -6 -20 -12 0 -21 -13 -35 -40 -43 l-25 -7 28 22 c31 24 28 41
-6 33 -30 -8 -47 -22 -47 -40 0 -8 -7 -21 -15 -30 -14 -13 -18 -13 -38 0 -26
16 -64 13 -87 -8 -9 -8 -19 -15 -23 -15 -3 0 -35 -13 -70 -30 -36 -17 -68 -30
-72 -30 -4 0 -38 -16 -76 -35 -39 -19 -79 -35 -89 -35 -10 0 -22 -5 -25 -10
-7 -11 -25 -4 -25 8 0 13 66 52 87 52 12 0 28 6 35 13 12 12 35 25 106 61 15
7 42 17 60 21 18 4 32 13 32 21 0 8 5 14 10 14 6 0 10 5 10 12 0 9 -3 9 -12 0
-7 -7 -25 -12 -40 -12 -15 0 -28 -4 -28 -8 0 -10 -71 -42 -85 -39 -5 1 -9 8
-7 15 4 19 -30 14 -91 -12 -30 -14 -58 -22 -61 -19 -3 4 -14 0 -23 -8 -29 -23
-56 -36 -91 -44 -31 -6 -39 0 -24 20 7 10 91 42 126 47 11 2 30 13 42 26 13
12 31 22 40 22 10 0 15 3 12 6 -8 8 -144 -35 -200 -62 -67 -34 -111 -31 -75 5
10 10 8 15 -7 27 -20 14 -20 14 0 29 10 8 31 15 46 15 25 0 64 27 55 37 -8 7
-57 -9 -57 -18 0 -5 -7 -9 -15 -9 -13 0 -31 -7 -120 -46 -16 -8 -24 -14 -17
-14 25 0 0 -20 -61 -50 -52 -24 -57 -29 -34 -30 15 0 42 7 58 16 17 8 33 13
36 10 5 -5 -120 -66 -137 -66 -5 0 -10 -4 -10 -9 0 -5 -16 -11 -35 -13 -55 -6
-38 17 30 44 23 9 26 12 12 15 -10 3 -29 -3 -43 -11 -23 -16 -66 -17 -80 -3
-4 3 -8 18 -10 32 -2 20 1 25 12 21 16 -6 18 12 4 34 -8 12 -13 13 -29 3 -24
-15 -52 -7 -45 12 3 7 16 16 30 19 13 4 24 11 24 16 0 6 7 10 15 10 19 0 18 7
-4 45 -15 26 -24 30 -66 32 -26 1 -53 7 -59 13 -15 15 -39 12 -62 -6 -10 -8
-14 -13 -8 -10 15 7 38 -20 29 -34 -8 -14 -68 -13 -100 2 -28 12 -48 3 -25
-13 13 -8 13 -10 0 -19 -8 -5 -30 -10 -48 -10 -29 0 -33 3 -30 22 3 21 -4 23
-92 38 -65 10 -106 22 -127 38 -18 12 -46 28 -63 33 -30 11 -42 39 -16 39 7 0
19 7 27 16 14 17 29 17 177 -6 65 -9 112 -10 213 -1 121 11 300 48 341 71 10
6 26 10 36 10 10 0 35 9 57 20 21 11 40 18 42 16 10 -10 -20 -58 -42 -68 -14
-6 -25 -17 -25 -25 0 -8 -16 -21 -36 -29 -29 -12 -34 -17 -24 -29 14 -17 46
-20 55 -5 8 13 42 13 50 -1 4 -6 -2 -19 -14 -30 -25 -24 -29 -49 -3 -27 20 18
91 43 99 34 12 -12 -8 -35 -56 -66 -28 -19 -51 -38 -51 -44 0 -6 4 -5 9 3 5 8
16 11 24 8 9 -3 21 0 27 8 10 12 18 10 51 -11 l39 -25 51 51 c30 30 44 50 34
50 -18 0 -19 12 -3 28 9 9 5 12 -20 12 -36 0 -41 10 -13 27 14 9 19 21 17 40
-2 15 1 36 6 47 6 12 7 21 1 25 -18 11 -23 127 -6 151 13 19 13 24 -2 47 -13
19 -16 39 -13 75 3 27 1 51 -4 54 -5 3 -8 11 -7 17 4 22 -13 47 -32 47 -22 0
-23 7 -4 40 8 14 14 33 15 43 0 16 -5 15 -37 -10 -21 -16 -50 -37 -65 -46 -72
-45 -311 -65 -359 -29 -40 29 -68 42 -89 42 -11 0 -20 5 -20 10 0 6 40 10 100
10 103 0 126 8 142 52 3 8 32 28 63 43 78 40 80 51 10 47 l-20 -1 20 9 c45 19
128 41 197 50 117 17 142 25 153 45 25 49 27 48 62 -16 19 -34 50 -77 68 -95z
m-2208 110 c-3 -3 -12 -4 -19 -1 -8 3 -5 6 6 6 11 1 17 -2 13 -5z m3353 -64
c-47 -36 -130 -72 -178 -77 -67 -8 -45 8 68 47 52 18 99 36 105 41 5 5 14 9
20 9 5 0 -1 -9 -15 -20z m202 -10 c5 -35 -20 -98 -51 -129 -12 -12 -19 -27
-15 -33 5 -7 3 -8 -5 -3 -8 4 -23 -3 -39 -18 -66 -61 -298 -137 -420 -137 -69
0 -36 35 58 60 63 16 112 41 262 131 91 55 139 90 160 118 16 23 33 41 38 41
4 0 10 -14 12 -30z m-3126 -12 c-3 -13 -8 -44 -11 -70 -3 -26 -11 -51 -17 -54
-10 -7 -4 85 8 129 8 25 25 21 20 -5z m-418 1 c-2 -6 -8 -10 -13 -10 -5 0 -11
4 -13 10 -2 6 4 11 13 11 9 0 15 -5 13 -11z m953 -16 c-8 -15 -10 -15 -11 -2
0 17 10 32 18 25 2 -3 -1 -13 -7 -23z m1912 -47 c90 -4 126 -17 97 -37 -21
-14 -189 -1 -217 17 -31 20 -29 34 5 29 15 -3 67 -7 115 -9z m-2856 -32 c-3
-3 -12 -4 -19 -1 -8 3 -5 6 6 6 11 1 17 -2 13 -5z m3543 -63 c0 -5 -16 -15
-35 -22 -19 -7 -35 -17 -35 -21 0 -4 -7 -8 -15 -8 -8 0 -15 6 -15 14 0 9 15
17 40 21 22 4 42 11 46 16 7 12 14 12 14 0z m-2270 -5 c0 -11 -19 -15 -25 -6
-3 5 1 10 9 10 9 0 16 -2 16 -4z m-1260 -16 c0 -5 -7 -10 -15 -10 -8 0 -15 5
-15 10 0 6 7 10 15 10 8 0 15 -4 15 -10z m2613 -42 c26 -13 36 -41 18 -52 -9
-6 -71 46 -71 58 0 10 24 7 53 -6z m-2358 -144 c-8 -13 -20 -24 -26 -24 -16 0
0 110 20 140 16 25 16 25 19 -33 2 -41 -2 -66 -13 -83z m-232 102 c12 -9 14
-16 8 -21 -6 -3 -11 -1 -11 4 0 6 -9 11 -20 11 -11 0 -20 5 -20 10 0 14 22 12
43 -4z m-8 -86 c-3 -5 -10 -10 -16 -10 -5 0 -9 5 -9 10 0 6 7 10 16 10 8 0 12
-4 9 -10z m205 -75 c-13 -16 -40 -20 -40 -7 0 14 12 22 33 22 16 0 17 -3 7
-15z m-885 -45 c-3 -5 -10 -10 -16 -10 -5 0 -9 5 -9 10 0 6 7 10 16 10 8 0 12
-4 9 -10z m699 -20 c-22 -9 -29 -6 -20 9 4 6 14 7 23 4 15 -6 14 -7 -3 -13z
m226 -11 c0 -5 -4 -9 -10 -9 -5 0 -10 7 -10 16 0 8 5 12 10 9 6 -3 10 -10 10
-16z m-3100 -3 c0 -11 -19 -15 -25 -6 -3 5 1 10 9 10 9 0 16 -2 16 -4z m1090
-30 c0 -20 -19 -31 -32 -18 -6 6 -7 15 -4 21 10 16 36 13 36 -3z m3640 -41 c0
-8 -4 -15 -10 -15 -5 0 -7 7 -4 15 4 8 8 15 10 15 2 0 4 -7 4 -15z m-3598 -27
c-3 -13 -14 -31 -25 -40 -26 -23 -35 -23 -14 0 18 20 11 37 -18 45 -12 4 -9 5
8 3 15 -2 30 1 33 5 11 18 22 8 16 -13z m-272 -8 c0 -5 -6 -10 -14 -10 -8 0
-18 5 -21 10 -3 6 3 10 14 10 12 0 21 -4 21 -10z m3335 0 c25 -6 20 -8 -25 -8
-30 0 -66 4 -80 8 -34 11 63 11 105 0z m78 3 c-7 -2 -21 -2 -30 0 -10 3 -4 5
12 5 17 0 24 -2 18 -5z m-3393 -33 c8 -5 11 -12 8 -16 -10 -9 -38 3 -38 16 0
12 10 13 30 0z m262 -7 c-10 -4 -10 -8 -1 -19 9 -11 9 -14 0 -14 -7 0 -9 -4
-6 -10 3 -5 15 -10 26 -10 10 0 19 -5 19 -11 0 -6 -7 -8 -16 -5 -9 3 -22 6
-30 6 -9 0 -14 11 -14 28 0 31 7 42 24 41 6 0 5 -3 -2 -6z m-769 -46 c-3 -5
-10 -4 -15 1 -6 6 -7 16 -3 22 6 9 9 9 16 -1 4 -7 5 -17 2 -22z m317 25 c0
-13 -12 -22 -22 -16 -10 6 -1 24 13 24 5 0 9 -4 9 -8z m739 -37 c-6 -22 -12
-51 -14 -65 -9 -51 -30 -120 -37 -120 -11 0 -10 7 6 70 7 30 13 62 13 70 0 19
32 95 38 89 2 -3 -1 -22 -6 -44z m-1104 25 c-3 -5 -10 -10 -16 -10 -5 0 -9 5
-9 10 0 6 7 10 16 10 8 0 12 -4 9 -10z m95 -10 c0 -5 -4 -10 -9 -10 -6 0 -13
5 -16 10 -3 6 1 10 9 10 9 0 16 -4 16 -10z m180 6 c0 -11 -19 -15 -25 -6 -3 5
1 10 9 10 9 0 16 -2 16 -4z m757 -58 c-3 -8 -6 -5 -6 6 -1 11 2 17 5 13 3 -3
4 -12 1 -19z m-867 2 c0 -5 -7 -10 -15 -10 -8 0 -15 5 -15 10 0 6 7 10 15 10
8 0 15 -4 15 -10z m40 0 c0 -5 -5 -10 -11 -10 -5 0 -7 5 -4 10 3 6 8 10 11 10
2 0 4 -4 4 -10z m656 -50 c1 -20 -4 -30 -13 -30 -8 0 -13 7 -11 18 2 9 -3 22
-12 29 -13 11 -11 12 10 13 21 0 25 -5 26 -30z m-1211 -10 c3 -5 -1 -10 -10
-10 -9 0 -13 5 -10 10 3 6 8 10 10 10 2 0 7 -4 10 -10z m4335 -10 c0 -5 -5
-10 -11 -10 -5 0 -7 5 -4 10 3 6 8 10 11 10 2 0 4 -4 4 -10z m-4205 -80 c3 -5
-1 -10 -9 -10 -9 0 -16 5 -16 10 0 6 4 10 9 10 6 0 13 -4 16 -10z m4182 -37
c5 -13 -32 -27 -46 -18 -6 3 -8 12 -4 21 6 17 44 15 50 -3z m3578 -2 c38 -20
75 -57 75 -74 0 -6 -8 0 -19 11 -18 22 -41 29 -41 14 0 -11 -58 -3 -66 9 -3 5
-14 9 -26 9 -14 0 -18 5 -14 15 3 8 1 15 -4 15 -6 0 -10 5 -10 10 0 17 68 11
105 -9z m-3680 -10 c3 -6 -3 -15 -14 -20 -27 -15 -30 -14 -24 9 6 21 28 27 38
11z m162 -8 c5 -13 -25 -26 -38 -17 -6 3 -5 11 2 20 13 16 31 14 36 -3z
m-4222 -83 c3 -5 -1 -10 -10 -10 -9 0 -13 5 -10 10 3 6 8 10 10 10 2 0 7 -4
10 -10z m855 0 c-20 -13 -33 -13 -25 0 3 6 14 10 23 10 15 0 15 -2 2 -10z
m3140 -15 c-14 -8 -34 -14 -44 -15 -20 0 -20 0 0 15 10 8 30 14 44 14 l25 0
-25 -14z m-2823 -62 c-3 -10 -5 -4 -5 12 0 17 2 24 5 18 2 -7 2 -21 0 -30z
m3618 -20 c-22 -16 -45 -17 -45 -3 0 13 41 30 54 22 5 -3 1 -11 -9 -19z
m-3905 7 c0 -5 -7 -10 -16 -10 -8 0 -12 5 -9 10 3 6 10 10 16 10 5 0 9 -4 9
-10z m-335 -21 c0 -7 -8 -15 -17 -17 -18 -3 -25 18 -11 32 10 10 28 1 28 -15z
m6209 -535 c23 -9 20 -24 -4 -24 -11 0 -20 7 -20 15 0 17 2 18 24 9z m-3334
-43 c0 -12 -92 -51 -104 -44 -4 3 9 12 30 19 21 7 40 18 42 24 4 12 32 14 32
1z m3344 -47 c36 -14 12 -24 -54 -24 -96 0 -94 26 2 29 20 0 43 -2 52 -5z
m443 -110 c5 -15 -28 -27 -40 -15 -5 5 -6 14 -2 21 8 13 37 9 42 -6z m-874
-79 c-7 -21 -13 -19 -13 6 0 11 4 18 10 14 5 -3 7 -12 3 -20z m887 -30 c0 -25
-14 -34 -24 -16 -8 12 3 41 15 41 5 0 9 -11 9 -25z m-74 -27 c22 -43 33 -93
24 -108 -4 -6 -15 16 -25 51 -9 35 -19 69 -22 76 -10 26 7 12 23 -19z m-808
-33 c-3 -3 -9 2 -12 12 -6 14 -5 15 5 6 7 -7 10 -15 7 -18z m863 -48 c-8 -8
-11 -7 -11 4 0 20 13 34 18 19 3 -7 -1 -17 -7 -23z"/>
<path d="M9081 5006 c-9 -11 -6 -17 14 -30 38 -25 85 -32 85 -13 0 31 -80 66
-99 43z"/>
<path d="M7030 1500 c0 -5 5 -10 11 -10 5 0 7 5 4 10 -3 6 -8 10 -11 10 -2 0
-4 -4 -4 -10z"/>
<path d="M5937 1394 c-3 -3 -3 -12 -1 -19 3 -7 -3 -16 -14 -19 -19 -6 -19 -8
-4 -38 l15 -32 29 35 c25 29 27 35 13 45 -8 6 -15 16 -15 23 0 12 -13 15 -23
5z"/>
<path d="M6840 1299 c-11 -20 -11 -20 14 -4 30 20 32 25 11 25 -8 0 -19 -9
-25 -21z"/>
<path d="M6645 1260 c-13 -6 -15 -9 -5 -9 8 0 22 4 30 9 18 12 2 12 -25 0z"/>
<path d="M6935 1260 c-3 -5 1 -10 9 -10 9 0 16 5 16 10 0 6 -4 10 -9 10 -6 0
-13 -4 -16 -10z"/>
<path d="M1053 5024 c-23 -10 -14 -33 18 -49 25 -14 30 -21 27 -48 -3 -34 -11
-38 -158 -81 -49 -14 -90 -43 -126 -88 -7 -9 -8 -23 -2 -37 4 -13 10 -57 12
-98 2 -57 7 -78 20 -85 9 -5 16 -18 16 -28 0 -14 7 -20 24 -20 32 0 50 -24 42
-55 -10 -39 25 -47 96 -23 52 18 59 18 87 4 38 -20 58 -21 42 -3 -8 11 3 24
52 60 34 26 72 47 85 47 13 0 34 11 48 25 13 13 27 24 30 24 3 0 28 20 55 45
l49 45 -6 73 c-3 43 -12 80 -21 90 -8 9 -17 34 -20 55 -5 35 -11 43 -73 81
-58 36 -79 43 -152 51 -46 5 -95 12 -109 15 -13 3 -30 2 -36 0z"/>
<path d="M5620 4910 c0 -5 7 -10 15 -10 8 0 15 5 15 10 0 6 -7 10 -15 10 -8 0
-15 -4 -15 -10z"/>
<path d="M6597 4863 c-48 -51 -89 -157 -93 -236 -1 -40 -1 -58 2 -42 20 140
45 209 99 274 33 38 28 41 -8 4z"/>
<path d="M5555 4810 c-4 -6 6 -10 24 -10 16 0 33 5 36 10 4 6 -6 10 -24 10
-16 0 -33 -4 -36 -10z"/>
<path d="M8210 4720 c12 -16 24 -30 26 -30 3 0 -4 14 -16 30 -12 17 -24 30
-26 30 -3 0 4 -13 16 -30z"/>
<path d="M6380 4654 c-25 -9 -67 -33 -95 -54 -27 -20 -58 -40 -68 -43 -10 -4
-16 -11 -13 -16 5 -8 -32 -36 -100 -77 -16 -9 -12 -14 36 -31 44 -17 56 -18
67 -7 24 23 53 26 90 9 l35 -17 -33 -20 c-28 -17 -31 -21 -16 -29 11 -7 24 -6
39 2 13 7 37 15 53 19 40 8 52 36 65 151 6 52 13 102 16 112 7 21 -14 22 -76
1z"/>
<path d="M8298 4506 c7 -110 -22 -197 -92 -275 l-21 -24 22 12 c33 17 69 69
93 135 18 46 21 73 18 126 -3 36 -10 75 -15 84 -7 13 -9 -4 -5 -58z"/>
<path d="M7017 4563 c-14 -13 -6 -23 18 -23 28 0 34 15 9 24 -19 7 -19 7 -27
-1z"/>
<path d="M0 4410 l0 -133 39 42 c38 41 46 69 27 99 -4 7 -3 19 4 27 9 11 3 22
-29 56 l-41 41 0 -132z"/>
<path d="M6511 4524 c0 -11 3 -14 6 -6 3 7 2 16 -1 19 -3 4 -6 -2 -5 -13z"/>
<path d="M6045 4499 c-11 -17 1 -21 15 -4 8 9 8 15 2 15 -6 0 -14 -5 -17 -11z"/>
<path d="M5503 4487 c-3 -5 26 -7 65 -6 39 2 74 0 78 -4 12 -12 26 -8 21 6 -4
14 -155 18 -164 4z"/>
<path d="M5686 4485 c-6 -16 3 -19 28 -9 22 8 20 24 -3 24 -10 0 -21 -7 -25
-15z"/>
<path d="M5458 4483 c7 -3 16 -2 19 1 4 3 -2 6 -13 5 -11 0 -14 -3 -6 -6z"/>
<path d="M5750 4481 c0 -12 36 -24 48 -17 5 3 37 -4 71 -14 35 -11 80 -20 101
-20 21 0 42 -5 45 -11 4 -6 14 -8 22 -5 9 4 21 2 27 -3 17 -13 126 -50 126
-42 0 14 -157 74 -171 65 -4 -2 -9 1 -11 8 -3 7 -20 13 -39 15 -19 1 -59 9
-89 17 -60 18 -130 21 -130 7z"/>
<path d="M7310 4480 c0 -5 7 -10 15 -10 8 0 15 5 15 10 0 6 -7 10 -15 10 -8 0
-15 -4 -15 -10z"/>
<path d="M5395 4470 c-3 -6 1 -7 9 -4 18 7 21 14 7 14 -6 0 -13 -4 -16 -10z"/>
<path d="M1873 4330 c-18 -11 -33 -22 -33 -24 0 -8 113 -66 119 -61 6 6 -17
75 -31 93 -14 16 -17 15 -55 -8z"/>
<path d="M6382 4331 c-10 -6 -10 -10 3 -21 13 -11 15 -9 15 9 0 24 0 24 -18
12z"/>
<path d="M1666 4283 c-16 -3 -40 -12 -53 -20 -18 -12 -37 -14 -83 -9 -51 6
-65 4 -88 -12 -21 -15 -38 -19 -79 -15 -59 6 -62 2 -53 -83 5 -40 14 -61 40
-92 19 -22 40 -41 45 -41 6 -1 18 -10 28 -21 9 -11 24 -20 32 -20 9 0 25 -16
37 -36 19 -33 24 -36 55 -31 18 3 31 2 29 -2 -7 -10 29 -30 41 -23 6 4 18 24
26 44 26 62 92 125 155 148 56 21 108 42 147 61 24 12 49 48 40 57 -4 4 -13
-2 -21 -12 -9 -14 -28 -20 -64 -22 -35 -1 -74 -14 -124 -39 -92 -46 -110 -44
-114 11 -3 38 1 47 54 103 l56 61 -38 -1 c-22 -1 -52 -4 -68 -6z"/>
<path d="M4816 4183 c-25 -37 -46 -73 -46 -79 0 -6 -8 -26 -17 -45 -21 -43
-21 -188 1 -263 16 -53 72 -143 83 -132 4 3 -1 14 -10 24 -9 9 -30 51 -47 91
-28 65 -31 83 -29 155 1 44 7 86 12 93 5 7 11 26 14 44 2 17 9 37 14 43 18 21
79 129 75 133 -2 2 -24 -27 -50 -64z"/>
<path d="M6519 4134 c11 -23 31 -54 44 -70 57 -68 71 -112 72 -219 0 -97 -2
-104 -38 -177 -20 -42 -58 -100 -84 -129 -59 -65 -24 -49 50 24 75 73 106 152
103 264 -2 75 -6 88 -50 175 -26 51 -63 111 -82 133 l-35 40 20 -41z"/>
<path d="M283 4053 c-26 -5 -29 -13 -11 -31 9 -9 9 -12 -2 -12 -13 0 -13 -1 0
-10 19 -12 70 18 70 42 0 18 -11 20 -57 11z"/>
<path d="M5358 4023 c7 -3 16 -2 19 1 4 3 -2 6 -13 5 -11 0 -14 -3 -6 -6z"/>
<path d="M9014 3960 c-10 -22 -24 -40 -31 -40 -13 0 -46 -54 -37 -62 2 -3 -2
-10 -10 -17 -11 -10 -18 -6 -36 19 -18 25 -28 31 -54 28 -19 -2 -30 -8 -28
-16 1 -7 -5 -21 -14 -30 -11 -10 -13 -17 -5 -20 6 -2 9 -8 6 -13 -4 -5 10 -23
29 -39 19 -17 38 -40 41 -51 7 -21 27 -27 23 -6 -2 8 9 11 35 9 27 -3 53 4 83
20 36 19 47 31 60 70 8 25 22 49 30 52 17 6 19 42 2 52 -8 5 -6 11 7 20 16 12
15 15 -10 38 -42 39 -70 34 -91 -14z m-80 -205 c3 -8 1 -15 -4 -15 -6 0 -10 7
-10 15 0 8 2 15 4 15 2 0 6 -7 10 -15z"/>
<path d="M116 3926 c-34 -20 -39 -36 -11 -36 18 0 69 47 58 53 -5 3 -26 -4
-47 -17z"/>
<path d="M3669 3910 c-107 -18 -399 -125 -399 -145 0 -3 14 2 32 11 66 34 202
74 328 95 30 5 122 9 205 10 188 1 349 -29 513 -96 73 -30 99 -38 82 -24 -71
58 -266 128 -414 148 -87 12 -277 13 -347 1z"/>
<path d="M0 3860 c0 -5 5 -10 10 -10 6 0 10 5 10 10 0 6 -4 10 -10 10 -5 0
-10 -4 -10 -10z"/>
<path d="M3705 3864 c-16 -2 -53 -9 -82 -15 -29 -5 -71 -12 -93 -14 -48 -5
-217 -71 -243 -94 -16 -16 -16 -17 18 -17 20 0 30 3 22 8 -12 8 -7 9 61 12 18
0 36 6 40 12 12 18 65 33 135 38 37 3 71 8 76 11 18 10 298 14 356 5 83 -14
198 -41 210 -50 6 -4 19 -10 30 -13 17 -6 17 -4 -4 13 -13 11 -18 20 -13 20 6
0 14 -4 17 -10 3 -5 15 -10 26 -10 11 0 18 -4 14 -9 -10 -17 31 -22 59 -8 l26
14 -48 21 c-160 69 -426 106 -607 86z"/>
<path d="M5760 3850 c-13 -9 -13 -11 0 -20 20 -13 47 -13 56 1 7 11 -12 29
-31 29 -5 0 -17 -5 -25 -10z"/>
<path d="M1710 3815 c0 -5 5 -17 10 -25 5 -8 10 -10 10 -5 0 6 -5 17 -10 25
-5 8 -10 11 -10 5z"/>
<path d="M5943 3778 c-4 -7 -19 -18 -33 -25 -33 -15 -140 -34 -151 -27 -16 9
-10 -18 12 -52 11 -19 25 -34 31 -34 6 0 7 -7 4 -15 -4 -10 3 -19 19 -25 13
-5 31 -20 39 -33 18 -26 102 -57 158 -57 70 0 92 10 116 51 12 21 29 39 37 39
16 0 31 26 30 52 0 21 -42 78 -57 78 -6 0 -31 10 -56 23 -33 16 -46 19 -49 10
-7 -20 -41 -16 -39 5 1 21 -48 30 -61 10z m-60 -55 c-7 -2 -19 -2 -25 0 -7 3
-2 5 12 5 14 0 19 -2 13 -5z"/>
<path d="M3486 3771 c-3 -4 6 -6 19 -3 14 2 25 6 25 8 0 8 -39 4 -44 -5z"/>
<path d="M8435 3761 c-71 -5 -80 -8 -80 -26 0 -16 8 -21 42 -23 25 -2 55 4 73
13 19 10 50 15 80 14 52 -3 66 3 55 20 -6 11 -31 11 -170 2z"/>
<path d="M3058 3668 c-96 -95 -132 -159 -156 -279 -16 -82 -12 -123 13 -133
13 -5 14 -2 4 16 -24 44 12 184 72 284 19 31 63 87 97 125 35 38 62 69 59 69
-3 0 -43 -37 -89 -82z"/>
<path d="M1610 3675 c-74 -55 -110 -87 -110 -95 0 -4 20 -13 44 -20 41 -11 47
-10 87 14 24 15 56 32 72 38 15 7 27 15 27 19 0 6 -69 80 -73 78 -1 0 -22 -15
-47 -34z"/>
<path d="M4510 3706 c0 -2 8 -10 18 -17 15 -13 16 -12 3 4 -13 16 -21 21 -21
13z"/>
<path d="M5118 3678 c2 -10 9 -17 15 -15 19 6 18 24 -1 29 -15 4 -18 1 -14
-14z"/>
<path d="M4483 3655 c0 -8 4 -12 9 -9 5 3 6 10 3 15 -9 13 -12 11 -12 -6z"/>
<path d="M4514 3625 c11 -8 22 -12 25 -9 6 6 -19 24 -34 24 -5 -1 -1 -7 9 -15z"/>
<path d="M4660 3634 c1 -17 59 -80 60 -63 0 8 -13 28 -30 44 -16 16 -30 25
-30 19z"/>
<path d="M5058 3623 c-22 -5 -24 -23 -3 -23 8 0 15 -4 15 -10 0 -5 6 -10 14
-10 8 0 17 -6 20 -12 5 -10 7 -10 12 0 3 6 10 10 15 7 5 -4 6 1 3 9 -3 9 -10
14 -15 11 -4 -3 -13 4 -19 15 -11 20 -12 21 -42 13z"/>
<path d="M666 3586 c-50 -16 -107 -77 -105 -114 1 -15 -3 -39 -9 -54 -10 -25
-9 -30 12 -43 13 -9 26 -29 30 -45 8 -40 24 -38 71 10 47 49 91 64 153 55 34
-5 55 -16 77 -39 27 -29 42 -76 24 -76 -7 0 -15 -6 -92 -71 -32 -27 -45 -32
-100 -33 -58 -1 -65 -4 -99 -39 -20 -20 -45 -37 -56 -37 -11 0 -25 -7 -32 -15
-6 -7 -37 -29 -68 -46 -65 -38 -50 -53 24 -24 24 9 53 14 64 10 12 -4 28 -1
36 6 11 9 18 9 32 -3 9 -8 32 -20 51 -27 30 -10 46 -7 135 23 56 19 129 40
164 46 69 14 78 26 31 42 -29 10 -30 12 -24 52 4 22 8 41 9 42 0 0 24 17 52
37 29 20 56 37 60 37 5 0 14 10 19 22 6 12 23 31 38 42 40 29 150 26 287 -8
58 -14 108 -26 113 -26 11 0 8 38 -4 45 -6 5 -8 27 -3 63 6 51 5 55 -12 47
-52 -21 -108 -26 -222 -20 l-122 7 -11 -31 c-8 -24 -24 -37 -63 -55 -107 -50
-146 -41 -146 34 0 38 -28 102 -68 157 -14 19 -32 28 -68 34 -68 11 -132 9
-178 -5z"/>
<path d="M4726 3551 c-4 -6 7 -26 24 -43 47 -50 74 -149 68 -251 -6 -99 -33
-172 -89 -246 -37 -49 -38 -52 -11 -33 68 49 132 176 132 261 0 55 -22 151
-47 206 -9 22 -18 46 -18 52 0 7 -4 12 -9 12 -5 0 -16 11 -26 26 -11 17 -20
23 -24 16z"/>
<path d="M530 3490 c0 -5 5 -10 10 -10 6 0 10 5 10 10 0 6 -4 10 -10 10 -5 0
-10 -4 -10 -10z"/>
<path d="M500 3469 c0 -5 5 -7 10 -4 6 3 10 8 10 11 0 2 -4 4 -10 4 -5 0 -10
-5 -10 -11z"/>
<path d="M97 3463 c-4 -3 -7 -15 -7 -25 0 -30 54 -21 58 10 3 17 -1 22 -21 22
-13 0 -27 -3 -30 -7z"/>
<path d="M4180 3405 c0 -17 2 -18 24 -9 23 9 20 24 -4 24 -11 0 -20 -7 -20
-15z"/>
<path d="M10 3380 c-8 -5 -11 -12 -7 -16 4 -4 13 -2 19 4 15 15 7 24 -12 12z"/>
<path d="M4240 3351 c0 -6 4 -12 9 -15 13 -8 42 4 35 15 -7 12 -44 12 -44 0z"/>
<path d="M63 3322 c-45 -18 -63 -31 -63 -44 0 -10 5 -18 10 -18 6 0 10 5 10
10 0 6 8 10 18 10 10 0 23 5 30 12 7 7 12 9 12 5 0 -3 12 5 27 19 14 13 24 26
22 28 -2 2 -32 -8 -66 -22z"/>
<path d="M229 3315 c-1 -3 -2 -8 -3 -12 -1 -5 -5 -15 -10 -23 -5 -8 3 -4 17 9
15 14 27 26 27 28 0 5 -30 3 -31 -2z"/>
<path d="M4118 3308 c9 -9 15 -9 24 0 9 9 7 12 -12 12 -19 0 -21 -3 -12 -12z"/>
<path d="M4320 3309 c0 -5 5 -7 10 -4 6 3 10 8 10 11 0 2 -4 4 -10 4 -5 0 -10
-5 -10 -11z"/>
<path d="M1820 3270 c-19 -4 -33 -8 -30 -10 3 -1 75 -4 160 -6 258 -7 360 -30
560 -127 85 -41 90 -43 58 -15 -38 32 -156 91 -168 83 -5 -3 -10 -1 -10 5 0 7
-7 9 -16 6 -8 -3 -13 -2 -10 2 7 11 -130 50 -219 62 -80 11 -273 11 -325 0z"/>
<path d="M1147 3243 c-15 -24 11 -31 96 -26 48 3 85 8 82 12 -4 3 -38 4 -76 2
-42 -2 -75 2 -83 9 -8 6 -17 7 -19 3z"/>
<path d="M110 3225 c-7 -8 -18 -15 -24 -15 -6 0 -22 -9 -36 -20 -20 -16 -22
-20 -7 -20 9 0 17 5 17 10 0 6 10 10 23 9 41 -4 52 1 64 26 10 22 9 25 -7 25
-10 0 -23 -7 -30 -15z"/>
<path d="M3191 3213 c-1 -17 16 -25 25 -12 4 7 3 9 -4 5 -5 -3 -13 0 -15 6 -4
9 -6 10 -6 1z"/>
<path d="M1908 3202 c11 -7 11 -10 -2 -15 -29 -11 -17 -23 27 -25 56 -4 118
-23 110 -35 -3 -5 3 -6 17 -2 17 5 20 4 15 -5 -6 -9 0 -11 24 -8 17 2 31 1 31
-4 0 -4 3 -7 8 -6 4 1 42 -6 85 -16 43 -10 85 -15 93 -12 8 3 14 0 14 -6 0 -7
4 -7 14 1 10 8 16 9 21 1 3 -5 3 -10 -2 -11 -9 0 36 -21 52 -24 6 -1 18 3 28
7 13 7 17 4 18 -9 0 -11 3 -13 6 -5 5 14 30 16 35 3 2 -4 13 -11 25 -15 19 -6
22 -4 17 11 -5 17 -4 17 10 -1 18 -22 12 -38 -11 -29 -11 4 -14 3 -9 -6 5 -7
14 -10 22 -7 8 3 14 2 14 -3 0 -5 9 -11 20 -14 13 -3 20 0 20 9 0 17 24 9 66
-23 38 -29 39 -28 39 1 0 13 -3 22 -7 19 -5 -2 -8 1 -8 7 0 6 -4 8 -10 5 -5
-3 -10 1 -10 9 0 8 -19 28 -42 44 -50 34 -190 102 -210 102 -8 0 -18 4 -24 9
-5 5 -63 19 -129 31 -126 23 -390 39 -367 22z m186 -24 c14 -24 7 -28 -34 -18
-26 6 -29 8 -11 9 20 1 22 3 10 17 -12 14 -11 16 5 13 10 -2 24 -12 30 -21z
m191 -68 l20 -9 -20 0 c-11 0 -27 4 -35 9 -13 9 -13 10 0 9 8 0 24 -4 35 -9z
m188 -30 c-3 -11 -7 -20 -9 -20 -2 0 -4 9 -4 20 0 11 4 20 9 20 5 0 7 -9 4
-20z m127 -90 c0 -5 -2 -10 -4 -10 -3 0 -8 5 -11 10 -3 6 -1 10 4 10 6 0 11
-4 11 -10z"/>
<path d="M2925 3173 c2 -18 0 -33 -5 -33 -20 0 -9 -16 61 -90 40 -41 58 -58
40 -37 -17 20 -34 49 -37 64 -10 38 -34 81 -35 63 -1 -8 -7 3 -15 25 -13 36
-14 37 -9 8z"/>
<path d="M210 3169 c0 -5 5 -7 10 -4 6 3 10 8 10 11 0 2 -4 4 -10 4 -5 0 -10
-5 -10 -11z"/>
<path d="M1670 3160 c-14 -5 -51 -16 -82 -24 -44 -13 -56 -20 -55 -35 1 -11 6
-17 14 -14 7 3 13 0 13 -7 0 -17 62 -4 73 15 4 8 13 15 18 15 6 0 7 -5 3 -12
-4 -6 14 3 39 21 26 18 47 36 47 41 0 12 -35 12 -70 0z"/>
<path d="M0 3149 c0 -5 5 -7 10 -4 5 3 10 8 10 11 0 2 -4 4 -10 4 -5 0 -10 -5
-10 -11z"/>
<path d="M1393 3143 c-18 -9 -33 -21 -33 -26 0 -7 55 21 79 40 12 9 -18 0 -46
-14z"/>
<path d="M83 3106 c-35 -30 -28 -39 26 -30 41 7 51 20 29 42 -17 17 -23 15
-55 -12z"/>
<path d="M1330 3110 c-8 -5 -12 -12 -9 -15 4 -3 12 1 19 10 14 17 11 19 -10 5z"/>
<path d="M1351 3034 c-12 -14 -11 -16 4 -12 10 1 20 9 23 16 5 17 -10 15 -27
-4z"/>
<path d="M2788 2987 c26 -35 57 -77 68 -93 34 -46 39 -20 6 30 -33 49 -103
126 -114 126 -4 0 14 -28 40 -63z"/>
<path d="M995 3000 c-86 -30 -191 -60 -212 -60 -11 0 -28 -9 -38 -20 -23 -25
-75 -26 -106 -1 -13 10 -50 24 -81 30 -52 11 -62 10 -130 -14 -88 -31 -97 -38
-131 -91 -14 -23 -40 -52 -56 -64 -29 -20 -42 -50 -22 -50 12 0 10 -102 -2
-117 -18 -24 1 -43 44 -43 l41 0 -6 36 c-6 29 -2 44 24 85 18 27 37 49 44 49
6 0 24 16 40 35 21 25 38 35 57 35 16 0 44 8 64 17 34 16 37 16 66 -1 28 -17
32 -17 49 -1 37 34 80 -23 80 -106 0 -42 12 -49 41 -23 16 14 19 14 34 -10 15
-23 66 -46 102 -46 7 0 15 17 19 38 10 56 65 192 89 218 72 78 94 112 79 118
-21 8 -31 7 -89 -14z m-25 -138 c0 -5 -18 -8 -39 -8 -21 1 -37 4 -34 9 6 10
73 9 73 -1z"/>
<path d="M2498 3003 c7 -3 16 -2 19 1 4 3 -2 6 -13 5 -11 0 -14 -3 -6 -6z"/>
<path d="M68 2978 c-10 -12 -18 -26 -18 -30 0 -15 48 -8 71 11 l24 19 -28 11
c-35 13 -29 15 -49 -11z"/>
<path d="M278 2983 c7 -3 16 -2 19 1 4 3 -2 6 -13 5 -11 0 -14 -3 -6 -6z"/>
<path d="M1071 2933 c-51 -69 -84 -130 -78 -146 2 -7 14 8 27 33 12 25 42 73
66 108 54 78 42 82 -15 5z"/>
<path d="M3190 2980 c0 -5 5 -10 11 -10 5 0 7 5 4 10 -3 6 -8 10 -11 10 -2 0
-4 -4 -4 -10z"/>
<path d="M1235 2940 c-3 -6 1 -7 9 -4 18 7 21 14 7 14 -6 0 -13 -4 -16 -10z"/>
<path d="M180 2930 c-8 -5 -10 -10 -5 -10 6 0 17 5 25 10 8 5 11 10 5 10 -5 0
-17 -5 -25 -10z"/>
<path d="M1190 2915 c-11 -13 -10 -14 4 -9 9 3 16 10 16 15 0 13 -6 11 -20 -6z"/>
<path d="M212 2909 c4 -13 -53 -56 -94 -72 -10 -3 -18 -11 -18 -16 0 -5 -23
-17 -50 -27 -46 -17 -50 -20 -50 -51 0 -32 1 -33 23 -22 91 48 189 115 212
145 30 39 30 38 -4 49 -17 5 -22 4 -19 -6z"/>
<path d="M2720 2916 c0 -2 7 -7 16 -10 8 -3 12 -2 9 4 -6 10 -25 14 -25 6z"/>
<path d="M0 2884 c0 -8 5 -12 10 -9 6 4 8 11 5 16 -9 14 -15 11 -15 -7z"/>
<path d="M60 2865 c-11 -13 -8 -15 15 -15 23 0 26 2 15 15 -7 8 -14 15 -15 15
-1 0 -8 -7 -15 -15z"/>
<path d="M50 2680 c0 -5 5 -10 11 -10 5 0 7 5 4 10 -3 6 -8 10 -11 10 -2 0 -4
-4 -4 -10z"/>
<path d="M636 2661 c-10 -11 -19 -26 -20 -35 -1 -8 -14 -29 -29 -46 -15 -17
-33 -42 -39 -55 -6 -14 -26 -34 -44 -44 -38 -23 -62 -59 -42 -65 7 -2 30 -8
50 -15 20 -6 48 -9 61 -6 14 4 28 2 31 -4 12 -19 75 -12 126 14 27 13 51 29
55 35 3 5 14 10 24 10 27 0 101 59 101 81 0 11 -4 18 -9 15 -5 -3 -15 1 -22
10 -14 18 -115 84 -127 84 -4 0 -13 9 -20 20 -16 26 -73 27 -96 1z m41 -208
c4 -11 -26 -27 -35 -19 -2 3 -2 12 2 21 6 18 27 16 33 -2z"/>
<path d="M76 2624 c-31 -21 -40 -24 -47 -13 -5 8 -9 17 -9 22 0 4 -4 7 -10 7
-6 0 -10 -29 -10 -66 0 -62 1 -65 21 -59 16 5 19 4 14 -5 -5 -8 -3 -11 6 -8 8
3 13 14 11 26 -2 16 7 26 37 42 40 20 50 41 33 67 -6 9 -18 6 -46 -13z"/>
<path d="M427 2630 c-3 -13 -14 -20 -28 -20 -12 0 -38 -5 -56 -12 -39 -14 -44
-47 -14 -79 l19 -21 39 25 c53 33 68 54 68 94 0 36 -19 45 -28 13z"/>
<path d="M565 2620 c-3 -5 1 -10 9 -10 8 0 18 5 21 10 3 6 -1 10 -9 10 -8 0
-18 -4 -21 -10z"/>
<path d="M2954 2548 c-53 -116 -70 -148 -93 -183 -42 -62 -45 -73 -11 -35 46
50 77 102 101 165 21 55 23 97 3 53z"/>
<path d="M152 2517 c-21 -23 -22 -25 -7 -61 9 -21 13 -46 10 -57 -5 -15 -1
-19 19 -19 17 0 26 -5 26 -16 0 -17 -48 -83 -87 -121 -28 -27 -21 -58 11 -48
49 15 184 50 221 58 31 6 172 -16 187 -30 22 -20 24 -63 4 -63 -8 0 -22 -10
-30 -22 -11 -16 -31 -24 -73 -30 -32 -5 -75 -11 -96 -14 -50 -8 -78 0 -112 32
-23 22 -32 24 -47 15 -34 -21 -69 -14 -81 19 -13 35 -32 39 -47 9 -9 -16 -8
-25 6 -40 21 -24 11 -38 -13 -17 -35 30 -43 30 -43 4 0 -16 6 -26 15 -26 8 0
15 -9 15 -20 0 -11 6 -20 14 -20 20 0 76 -79 76 -106 0 -29 -14 -37 -70 -44
l-45 -5 -3 -319 -2 -319 32 26 c18 15 53 38 78 52 25 14 54 39 65 55 11 16 30
34 43 40 44 19 130 101 136 129 3 15 21 37 43 53 23 16 39 35 40 49 3 34 22
48 29 21 8 -30 17 -28 60 16 l36 37 -7 -42 c-7 -43 -6 -43 23 -43 22 0 36 -9
56 -34 36 -47 33 -56 -17 -56 -23 0 -58 -5 -77 -11 -19 -5 -50 -10 -68 -11
-17 0 -35 -4 -38 -9 -3 -5 2 -9 12 -9 13 0 14 -3 4 -15 -7 -8 -19 -15 -27 -15
-23 0 -130 -58 -136 -74 -3 -8 1 -22 8 -33 21 -26 19 -34 -19 -75 -27 -29 -35
-34 -38 -21 -3 15 -5 15 -18 1 -9 -8 -22 -17 -30 -21 -10 -3 -7 -6 8 -6 33 -1
25 -32 -13 -50 -34 -17 -96 -15 -107 2 -4 7 -11 2 -16 -13 -11 -29 7 -42 46
-33 33 8 27 -14 -10 -33 -23 -12 -36 -14 -48 -6 -30 18 -47 -7 -49 -77 -1 -35
3 -69 9 -76 8 -10 8 -19 -2 -34 -17 -28 1 -41 19 -14 9 13 21 23 27 23 6 0 19
9 28 20 10 11 30 22 45 26 36 8 153 65 153 75 0 3 8 9 18 13 9 3 37 17 61 31
50 29 76 20 42 -14 -13 -13 -34 -21 -56 -21 -33 0 -48 -14 -24 -22 8 -3 6 -9
-4 -20 -14 -13 -14 -17 -2 -21 7 -3 19 1 25 9 7 8 19 14 26 14 7 0 38 11 69
24 39 18 53 29 49 40 -7 17 27 30 56 21 11 -4 20 -2 20 4 0 6 18 15 40 21 51
14 103 47 126 83 11 15 27 30 37 33 9 3 17 12 17 20 0 10 -6 14 -17 10 -10 -2
-33 -8 -52 -11 l-35 -7 32 40 c23 29 38 39 51 35 14 -4 24 3 35 26 10 18 24
31 35 31 26 0 51 10 51 21 0 15 -36 10 -61 -9 -39 -30 -86 -50 -99 -42 -13 8
-2 15 95 65 58 29 80 31 89 10 4 -13 10 -14 26 -5 12 6 30 8 40 5 12 -4 20 -2
20 4 0 6 -4 11 -10 11 -14 0 -12 28 2 32 7 3 19 -7 26 -21 7 -14 10 -27 5 -28
-33 -12 -59 -32 -68 -51 -5 -12 -16 -22 -23 -22 -21 0 -111 -63 -105 -73 3 -5
10 -4 16 2 6 6 22 11 34 11 13 0 41 9 62 20 21 10 41 17 44 14 9 -9 47 16 47
31 0 21 17 19 24 -2 2 -10 4 -4 3 12 -1 17 2 35 6 42 8 13 -2 45 -13 38 -8 -5
-26 51 -36 115 -4 25 -13 57 -20 72 -8 15 -14 35 -13 45 0 16 1 16 10 -2 7
-16 8 -14 3 10 -6 32 -15 168 -19 280 -3 112 -5 125 -13 125 -5 0 -13 -24 -18
-52 l-9 -53 -63 -6 c-60 -6 -66 -9 -117 -59 -57 -57 -74 -54 -54 8 35 110 81
164 151 177 31 6 41 3 60 -16 l24 -24 -4 155 c-2 85 -8 159 -12 164 -5 4 -24
-4 -44 -19 -19 -14 -43 -25 -53 -24 -10 2 -27 -2 -39 -8 -22 -13 -186 -46
-219 -45 -59 2 -85 15 -107 53 -24 44 -56 51 -108 24 -24 -12 -29 -12 -33 -1
-3 8 -18 20 -34 28 -23 11 -29 21 -31 53 -2 32 -8 43 -29 53 -35 16 -36 16
-61 -11z m158 -161 c0 -3 -4 -8 -10 -11 -5 -3 -10 -1 -10 4 0 6 5 11 10 11 6
0 10 -2 10 -4z m0 -286 c0 -5 -5 -10 -11 -10 -5 0 -7 5 -4 10 3 6 8 10 11 10
2 0 4 -4 4 -10z m-152 -26 c-9 -9 -21 -13 -27 -9 -16 10 -3 25 22 25 20 0 20
-1 5 -16z m45 -193 c-1 -37 -17 -53 -48 -49 -29 4 -31 36 -4 64 32 34 54 27
52 -15z m111 -699 c3 -5 -15 -18 -40 -29 -37 -17 -43 -18 -32 -4 28 37 60 52
72 33z m-107 -79 c-8 -9 -27 -15 -41 -15 -16 0 -28 -7 -31 -19 -4 -11 -11 -19
-17 -19 -6 0 -20 -7 -30 -17 -17 -15 -18 -15 -18 0 0 10 -7 17 -15 17 -8 0
-15 -4 -15 -10 0 -5 -8 -10 -17 -10 -15 0 -13 4 7 20 29 23 46 25 53 8 3 -8 9
-2 15 13 7 17 23 29 50 37 22 7 46 20 53 29 13 15 14 15 17 -2 2 -9 -3 -24
-11 -32z"/>
<path d="M53 2403 c-7 -2 -13 -11 -13 -20 0 -10 6 -12 23 -7 28 8 30 10 22 23
-7 12 -13 12 -32 4z"/>
<path d="M1437 2376 c-15 -12 -16 -14 -2 -20 9 -3 15 0 15 8 0 8 6 17 13 19 6
3 8 6 2 6 -5 0 -18 -6 -28 -13z"/>
<path d="M1007 2363 c3 -13 32 -51 65 -85 60 -63 61 -57 3 14 -16 21 -40 50
-52 65 -20 25 -21 26 -16 6z"/>
<path d="M53 2322 c-18 -9 -33 -19 -33 -24 0 -16 29 -8 57 17 32 27 24 30 -24
7z"/>
<path d="M2290 2320 c0 -5 12 -10 26 -10 14 0 23 4 19 10 -3 6 -15 10 -26 10
-10 0 -19 -4 -19 -10z"/>
<path d="M2250 2306 c-11 -14 -10 -19 6 -31 10 -7 21 -9 22 -4 9 24 22 5 22
-33 0 -45 9 -44 25 4 10 28 12 29 27 14 9 -9 23 -16 30 -16 8 0 7 -4 -4 -11
-10 -5 -18 -16 -18 -24 0 -7 -10 -15 -22 -18 -23 -4 -23 -4 2 -15 20 -8 21
-11 6 -11 -16 -1 -16 -3 5 -20 16 -13 25 -16 28 -8 7 18 28 37 35 30 3 -3 -2
-12 -12 -19 -14 -11 -14 -13 -2 -13 22 0 53 26 45 38 -3 6 -1 11 4 11 6 0 11
5 11 12 0 6 -3 8 -7 5 -3 -4 -12 -2 -20 4 -7 6 -22 9 -33 6 -24 -6 -25 -1 -6
19 20 19 60 19 53 0 -4 -10 -1 -13 7 -10 17 7 8 44 -10 44 -17 0 -17 5 -3 31
9 18 8 19 -9 10 -11 -6 -22 -17 -26 -26 -7 -20 -24 -19 -68 4 -19 11 -39 17
-42 14 -3 -4 -12 1 -19 11 -12 16 -14 16 -27 2z m140 -126 c0 -5 -4 -10 -10
-10 -5 0 -10 5 -10 10 0 6 5 10 10 10 6 0 10 -4 10 -10z"/>
<path d="M1460 2301 c0 -5 -9 -8 -20 -6 -11 2 -20 -1 -20 -7 0 -5 6 -8 14 -5
8 3 16 1 18 -5 2 -6 9 -4 16 5 9 10 10 17 2 22 -5 3 -10 2 -10 -4z"/>
<path d="M2502 2268 c-16 -16 -15 -28 3 -28 8 0 15 9 15 20 0 23 -2 24 -18 8z"/>
<path d="M1460 2250 c0 -5 5 -10 11 -10 5 0 7 5 4 10 -3 6 -8 10 -11 10 -2 0
-4 -4 -4 -10z"/>
<path d="M1495 2250 c-3 -5 -1 -10 4 -10 6 0 11 5 11 10 0 6 -2 10 -4 10 -3 0
-8 -4 -11 -10z"/>
<path d="M2210 2220 c0 -5 7 -7 15 -4 8 4 15 8 15 10 0 2 -7 4 -15 4 -8 0 -15
-4 -15 -10z"/>
<path d="M2485 2200 c6 -9 -1 -20 -37 -60 -12 -13 -14 -21 -6 -26 7 -4 5 -10
-6 -16 -9 -5 -16 -14 -16 -20 0 -6 8 -4 18 5 10 10 24 17 31 17 6 0 16 11 21
25 5 14 16 25 24 25 13 0 12 5 -2 30 -9 16 -21 30 -25 30 -5 0 -5 -4 -2 -10z"/>
<path d="M2235 2189 c4 -6 -2 -13 -14 -16 -12 -3 -21 -9 -21 -14 0 -5 -11 -14
-25 -19 -14 -5 -25 -15 -25 -22 0 -10 2 -10 9 1 7 11 11 10 19 -5 8 -15 13
-16 26 -5 9 7 16 23 16 34 0 19 14 16 16 -4 4 -30 7 -31 13 -9 4 14 16 30 28
35 21 11 21 11 2 23 -23 15 -52 16 -44 1z m35 -9 c0 -5 -4 -10 -10 -10 -5 0
-10 5 -10 10 0 6 5 10 10 10 6 0 10 -4 10 -10z"/>
<path d="M1693 2140 c-30 -12 -29 -17 7 -22 16 -3 28 -2 25 0 -3 3 0 11 6 19
14 16 -3 17 -38 3z"/>
<path d="M2293 2126 c-13 -6 -23 -14 -23 -18 0 -5 -11 -8 -25 -8 -14 0 -25 -5
-25 -11 0 -6 9 -8 20 -4 12 4 20 2 20 -6 0 -9 3 -9 15 1 8 6 23 9 35 5 27 -9
26 3 -2 15 -18 7 -19 9 -5 9 9 1 17 8 17 16 0 8 -1 14 -2 14 -2 -1 -13 -6 -25
-13z"/>
<path d="M2341 2124 c0 -11 3 -14 6 -6 3 7 2 16 -1 19 -3 4 -6 -2 -5 -13z"/>
<path d="M1431 2106 c-9 -11 -8 -15 5 -20 22 -8 24 -8 24 8 0 21 -16 28 -29
12z"/>
<path d="M2101 2094 c-1 -5 -23 -20 -51 -32 -27 -12 -50 -24 -50 -27 0 -8 53
6 69 19 8 6 30 17 50 23 20 7 26 11 14 9 -12 -2 -24 1 -27 8 -3 7 -5 7 -5 0z"/>
<path d="M2346 2075 c4 -8 8 -15 10 -15 2 0 4 7 4 15 0 8 -4 15 -10 15 -5 0
-7 -7 -4 -15z"/>
<path d="M2381 2074 c0 -11 3 -14 6 -6 3 7 2 16 -1 19 -3 4 -6 -2 -5 -13z"/>
<path d="M1755 2070 c3 -5 8 -10 11 -10 2 0 4 5 4 10 0 6 -5 10 -11 10 -5 0
-7 -4 -4 -10z"/>
<path d="M1673 2034 c-18 -8 -4 -34 19 -34 10 0 16 5 13 10 -3 6 -1 10 4 10 6
0 11 5 11 10 0 10 -26 12 -47 4z"/>
<path d="M1012 1895 c0 -16 2 -22 5 -12 2 9 2 23 0 30 -3 6 -5 -1 -5 -18z"/>
<path d="M2298 1903 c6 -2 18 -2 25 0 6 3 1 5 -13 5 -14 0 -19 -2 -12 -5z"/>
<path d="M3122 1871 c-10 -6 -11 -13 -3 -27 21 -38 41 -97 41 -123 0 -32 50
-141 74 -160 15 -13 19 -13 27 0 5 8 9 17 9 22 0 12 -18 8 -23 -5 -3 -7 -6 -2
-6 12 -1 14 -12 43 -26 65 -32 52 -32 80 -1 41 13 -15 41 -37 62 -47 22 -11
50 -26 64 -34 23 -13 25 -13 32 6 9 24 3 39 -18 39 -8 0 -14 5 -14 10 0 6 -5
10 -11 10 -6 0 -38 23 -70 52 -41 35 -59 58 -56 69 3 11 0 16 -8 13 -7 -3 -22
11 -35 30 -12 20 -22 36 -23 36 -1 0 -8 -4 -15 -9z"/>
<path d="M1016 1831 c-3 -5 1 -11 9 -14 9 -4 12 -1 8 9 -6 16 -10 17 -17 5z"/>
<path d="M8190 1768 c0 -4 7 -8 15 -8 8 0 15 4 15 8 0 5 -7 9 -15 9 -8 0 -15
-4 -15 -9z"/>
<path d="M1022 1735 c0 -16 2 -22 5 -12 2 9 2 23 0 30 -3 6 -5 -1 -5 -18z"/>
<path d="M1071 1489 c-2 -30 21 -134 35 -159 7 -14 13 -18 13 -10 0 22 -47
188 -48 169z"/>
<path d="M3175 1423 c4 -10 8 -36 9 -59 1 -22 12 -57 24 -76 26 -41 27 -48 8
-48 -14 0 -30 30 -74 133 -12 26 -23 47 -26 47 -16 0 -59 -100 -77 -181 -31
-138 -33 -167 -17 -187 18 -23 44 -80 52 -118 9 -38 131 -161 166 -166 16 -2
26 -11 30 -28 3 -14 19 -32 35 -40 16 -8 34 -19 40 -23 5 -5 25 -17 43 -28 18
-11 30 -24 27 -29 -4 -6 7 -10 26 -10 30 0 31 1 16 18 -37 41 -19 39 100 -9
81 -33 117 -38 61 -8 -21 11 -38 26 -38 35 0 8 -4 12 -10 9 -6 -3 -7 1 -4 9 7
18 89 23 99 6 3 -5 11 -10 16 -10 6 0 8 4 4 9 -3 5 5 13 17 17 13 4 24 2 26
-5 2 -7 9 -8 21 -1 10 5 21 7 25 3 11 -12 77 -11 73 1 -2 6 -13 10 -23 8 -17
-2 -16 0 5 18 23 20 23 20 2 20 -12 0 -30 -5 -41 -12 -24 -15 -41 -1 -18 16
15 11 10 14 -35 25 -29 8 -65 19 -82 26 -16 7 -78 30 -137 50 -98 34 -151 66
-135 81 4 4 17 0 30 -9 13 -8 79 -29 147 -46 111 -28 140 -31 272 -32 160 0
238 8 203 22 -18 6 -15 9 18 23 20 9 37 17 37 19 0 1 -30 -2 -68 -7 -65 -9
-181 2 -122 12 14 2 30 8 35 13 6 4 31 11 55 14 25 4 54 10 65 15 31 14 122
30 165 30 22 0 40 4 40 9 0 11 31 24 38 16 12 -12 -47 -51 -122 -82 -45 -18
-76 -33 -70 -33 20 0 124 39 182 68 31 16 71 35 87 43 17 7 33 15 38 17 15 7
6 -29 -20 -84 -16 -34 -22 -58 -16 -62 5 -4 12 -15 16 -25 4 -9 20 -20 37 -24
28 -5 30 -9 25 -33 -5 -25 -4 -27 19 -23 14 3 31 12 38 21 11 13 11 14 -2 7
-13 -7 4 15 48 63 6 7 12 23 12 35 0 12 7 35 16 52 8 16 19 59 24 95 5 36 12
75 16 88 3 12 2 22 -4 22 -5 0 -15 28 -21 63 -16 84 -30 115 -64 148 -24 24
-33 27 -51 18 -18 -9 -19 -8 -5 3 20 16 42 58 31 58 -4 0 -28 -21 -52 -46 -28
-28 -36 -42 -22 -35 14 8 22 8 22 1 0 -5 -8 -11 -17 -12 -28 -2 -36 -4 -68
-17 -143 -61 -264 -82 -460 -82 -266 1 -386 17 -510 68 -61 25 -207 111 -213
125 -7 17 -24 7 -17 -9z m1232 -118 c-4 -8 -11 -15 -17 -15 -6 0 -6 7 2 20 14
22 24 19 15 -5z m-1136 -85 c28 -16 23 -30 -6 -17 -14 7 -25 15 -25 20 0 10 8
9 31 -3z m-6 -171 c40 -35 43 -45 16 -54 -22 -7 -34 -41 -22 -64 10 -19 4 -41
-10 -41 -6 0 -7 5 -4 10 4 6 -3 19 -16 28 -36 30 -44 152 -10 152 6 0 26 -14
46 -31z m234 -48 c21 -13 -5 -24 -29 -11 -11 6 -20 13 -20 15 0 8 34 5 49 -4z
m356 -81 c3 -5 2 -10 -4 -10 -5 0 -13 5 -16 10 -3 6 -2 10 4 10 5 0 13 -4 16
-10z m-105 -30 c11 -8 7 -9 -15 -4 -37 8 -45 14 -19 14 10 0 26 -5 34 -10z
m55 -10 c3 -5 -3 -10 -14 -10 -12 0 -21 5 -21 10 0 6 6 10 14 10 8 0 18 -4 21
-10z m-387 -69 c3 -8 -1 -12 -9 -9 -7 2 -15 10 -17 17 -3 8 1 12 9 9 7 -2 15
-10 17 -17z m-3 -31 c-3 -5 -10 -10 -16 -10 -5 0 -9 5 -9 10 0 6 7 10 16 10 8
0 12 -4 9 -10z m219 -69 c3 -5 0 -11 -7 -14 -8 -3 -14 1 -14 9 0 16 13 19 21
5z"/>
<path d="M875 1280 c-3 -5 -1 -10 4 -10 6 0 11 5 11 10 0 6 -2 10 -4 10 -3 0
-8 -4 -11 -10z"/>
<path d="M1150 1231 c0 -5 5 -13 10 -16 6 -3 10 -2 10 4 0 5 -4 13 -10 16 -5
3 -10 2 -10 -4z"/>
<path d="M1180 1151 c0 -5 7 -15 17 -22 15 -13 15 -12 4 9 -12 23 -21 28 -21
13z"/>
<path d="M255 1000 c-3 -5 -4 -14 0 -20 8 -13 35 -1 35 16 0 16 -26 19 -35 4z"/>
<path d="M180 970 c-19 -10 -54 -27 -76 -38 -23 -11 -45 -25 -48 -31 -4 -6
-18 -8 -32 -5 -20 5 -24 2 -24 -16 0 -17 4 -20 21 -15 15 5 19 4 15 -4 -4 -6
0 -11 9 -11 11 0 15 5 12 14 -3 8 2 16 14 19 10 3 19 2 19 -2 0 -16 71 -4 97
16 20 16 24 22 12 22 -27 1 -32 31 -6 31 12 0 28 9 35 20 16 26 0 26 -48 0z"/>
<path d="M5428 943 c-10 -2 -18 -11 -18 -19 0 -18 3 -18 30 6 23 20 21 22 -12
13z"/>
<path d="M155 835 c-22 -13 -48 -25 -58 -25 -14 0 -17 -5 -11 -22 6 -20 5 -21
-8 -10 -12 10 -18 9 -28 -3 -7 -8 -20 -15 -29 -15 -14 1 -13 3 3 15 10 7 16
20 13 27 -4 10 -6 10 -6 1 -1 -7 -7 -13 -15 -13 -10 0 -14 -10 -14 -31 1 -25
5 -30 20 -26 10 3 18 1 18 -5 0 -5 -9 -12 -20 -15 -23 -6 -27 -23 -5 -23 22 0
96 40 133 72 18 15 38 28 44 28 5 0 8 8 5 19 -2 10 0 26 5 35 13 22 0 20 -47
-9z"/>
<path d="M0 835 c0 -8 7 -15 15 -15 8 0 15 7 15 15 0 8 -7 15 -15 15 -8 0 -15
-7 -15 -15z"/>
<path d="M80 840 c0 -5 7 -10 15 -10 8 0 15 5 15 10 0 6 -7 10 -15 10 -8 0
-15 -4 -15 -10z"/>
<path d="M224 738 c4 -44 3 -68 -4 -68 -5 0 -10 5 -10 10 0 6 -7 10 -16 10
-14 0 -14 3 -4 15 7 9 10 18 7 22 -9 9 -63 -16 -83 -38 -9 -10 -24 -19 -33
-20 -9 0 -29 -8 -46 -18 -22 -13 -31 -26 -33 -50 -3 -25 0 -31 10 -26 10 6 11
5 1 -6 -7 -7 -13 -38 -13 -71 0 -50 2 -57 17 -52 17 5 17 5 1 -9 -11 -9 -18
-27 -17 -48 0 -22 3 -28 7 -18 6 15 9 15 21 2 11 -12 10 -15 -8 -20 -18 -5
-21 -13 -21 -60 0 -50 2 -54 20 -48 11 3 20 2 20 -4 0 -5 -9 -13 -20 -16 -17
-5 -20 -15 -20 -71 0 -40 4 -64 11 -64 6 0 9 7 5 15 -3 9 3 19 17 26 37 19 77
67 61 73 -7 3 -16 1 -19 -4 -4 -6 -21 -9 -38 -9 -21 1 -25 3 -12 6 11 3 27 13
35 22 8 9 26 15 40 14 21 -2 22 -1 6 5 -23 10 -13 19 34 32 33 9 39 0 15 -24
-15 -15 -35 -59 -35 -77 0 -6 16 -9 34 -8 19 2 38 1 41 -3 9 -9 -84 -60 -96
-53 -5 4 -16 1 -24 -5 -8 -6 -20 -8 -26 -4 -7 4 -9 3 -6 -3 4 -6 0 -16 -8 -23
-10 -9 -15 -9 -15 -1 0 6 -4 11 -10 11 -5 0 -10 -18 -10 -40 l0 -40 64 0 c44
0 67 5 76 15 7 8 17 15 22 15 6 0 5 -7 -2 -15 -11 -13 20 -15 269 -15 154 0
281 3 281 8 0 4 -8 19 -17 32 -10 14 -25 37 -33 52 -8 14 -24 41 -34 60 -29
51 -128 202 -136 208 -4 3 -11 16 -15 30 -4 14 -13 32 -20 40 -14 16 -135 206
-198 310 l-39 65 6 -67z m-54 -57 c0 -10 -24 -21 -43 -21 -7 0 -3 7 7 15 22
17 36 19 36 6z m20 -75 c0 -2 -7 -6 -15 -10 -8 -3 -15 -1 -15 4 0 6 7 10 15
10 8 0 15 -2 15 -4z m-63 -32 c-3 -3 -12 -4 -19 -1 -8 3 -5 6 6 6 11 1 17 -2
13 -5z m103 -49 c0 -21 -3 -23 -42 -18 -24 3 -45 8 -48 10 -9 8 34 34 47 29 7
-3 15 -1 18 5 10 15 25 0 25 -26z m-116 -37 c-9 -14 22 -19 51 -8 21 8 30 8
36 -1 4 -6 12 -8 18 -5 6 4 11 3 11 -3 0 -15 -41 -35 -49 -24 -3 5 -25 9 -49
8 -24 0 -47 2 -53 6 -16 9 1 38 21 36 10 -1 16 -5 14 -9z m56 -63 c0 -2 -8 -9
-18 -14 -14 -8 -19 -6 -19 5 0 7 9 14 19 14 10 0 18 -2 18 -5z m-124 -24 c-4
-5 -1 -12 4 -14 6 -3 5 -4 -2 -3 -15 3 -23 26 -8 26 6 0 9 -4 6 -9z m199 -11
c-9 -14 -45 -32 -45 -23 0 7 24 22 48 32 2 0 0 -3 -3 -9z m-134 -22 c-13 -4
-28 -5 -34 -1 -7 4 -2 10 13 13 33 9 50 -1 21 -12z m29 -33 c0 -3 -11 -10 -25
-15 -14 -5 -25 -16 -25 -25 0 -19 -1 -19 -36 0 l-29 15 25 0 c14 0 34 7 44 15
19 15 46 20 46 10z m7 -51 c-3 -3 -12 -4 -19 -1 -8 3 -5 6 6 6 11 1 17 -2 13
-5z"/>
<path d="M460 786 c0 -2 7 -9 15 -16 13 -11 14 -10 9 4 -5 14 -24 23 -24 12z"/>
<path d="M2692 713 c-67 -145 -106 -199 -166 -227 -21 -10 -102 -29 -180 -43
-197 -34 -441 -41 -645 -19 -84 10 -155 15 -158 13 -4 -5 107 -31 172 -41 17
-2 -6 -2 -49 0 -53 4 -99 13 -139 30 -33 14 -69 23 -79 21 -11 -3 -22 1 -25 9
-3 8 -10 11 -15 8 -6 -4 -14 -1 -18 6 -6 9 -10 6 -15 -9 -4 -13 -1 -28 5 -36
8 -10 9 -15 2 -15 -6 0 -16 8 -21 17 -22 38 -9 -2 20 -64 17 -35 33 -85 35
-110 2 -25 8 -52 13 -61 14 -25 1 -52 -25 -52 -13 0 -24 -2 -24 -5 0 -16 30
-66 60 -99 l35 -38 140 5 c77 3 151 9 165 15 18 7 5 8 -50 5 -82 -5 -142 9
-122 29 9 9 18 9 37 0 15 -7 33 -8 47 -3 21 8 16 12 -47 41 -53 25 -66 34 -52
39 10 4 19 11 20 16 3 17 70 13 132 -8 49 -16 88 -20 215 -20 139 -1 165 2
255 27 128 35 202 68 283 128 35 26 70 48 77 48 13 0 85 -29 74 -30 -3 0 -2
-21 2 -48 6 -41 4 -51 -19 -82 -14 -19 -19 -29 -12 -22 18 16 38 16 22 0 -7
-7 -12 -19 -12 -27 0 -11 5 -9 16 7 8 12 13 26 10 30 -3 5 13 26 36 48 35 33
39 34 24 11 -9 -15 -14 -32 -11 -37 10 -15 -26 -89 -56 -114 -15 -13 -26 -26
-23 -28 5 -6 81 10 104 22 22 11 25 42 4 57 -15 11 -15 13 -2 13 17 0 65 74
85 130 27 80 36 129 38 210 2 90 -8 144 -31 167 -8 8 -17 26 -20 41 -8 30 -61
112 -73 112 -4 0 -21 -30 -39 -67z m-157 -270 c-119 -110 -303 -188 -465 -198
l-75 -4 63 9 c34 5 69 16 77 24 13 13 11 15 -17 18 l-33 4 30 13 c17 8 66 15
110 16 44 1 98 7 120 13 54 16 152 80 205 136 24 25 46 43 49 40 3 -4 -25 -35
-64 -71z m-1027 -58 c20 -14 34 -25 30 -25 -9 0 -78 41 -78 46 0 9 12 3 48
-21z m248 -115 c44 -11 99 -20 124 -21 40 -2 41 -3 11 -6 -42 -5 -148 12 -193
32 -45 19 -34 18 58 -5z m451 -66 c-3 -3 -12 -4 -19 -1 -8 3 -5 6 6 6 11 1 17
-2 13 -5z m-229 -21 c-16 -2 -40 -2 -55 0 -16 2 -3 4 27 4 30 0 43 -2 28 -4z"/>
<path d="M3885 699 c-4 -6 -5 -12 -2 -15 2 -3 7 2 10 11 7 17 1 20 -8 4z"/>
<path d="M1328 688 c17 -17 15 -31 -3 -24 -12 4 -13 2 -6 -12 5 -9 18 -26 28
-37 19 -21 23 -46 10 -56 -9 -6 39 -49 54 -49 20 0 7 18 -16 24 -14 4 -25 11
-25 17 0 7 7 8 18 3 9 -4 46 -18 82 -31 64 -23 64 -24 20 -19 l-45 6 55 -19
c131 -44 217 -56 415 -55 184 0 342 14 388 35 18 8 16 9 -12 4 -19 -3 -60 -7
-90 -10 -45 -4 -41 -2 23 9 122 22 203 46 301 89 92 40 119 56 110 65 -2 3 5
20 16 39 l21 33 -32 0 c-18 0 -29 -4 -25 -10 3 -5 0 -10 -8 -10 -8 0 -35 -11
-59 -25 -66 -37 -205 -83 -304 -100 -103 -18 -413 -20 -513 -4 -157 25 -283
69 -358 125 -34 26 -67 34 -45 12z m49 -38 c8 0 21 -7 29 -15 20 -19 11 -19
-26 0 -17 9 -30 21 -29 28 0 9 2 9 6 0 2 -7 11 -13 20 -13z m273 -175 c48 -9
56 -13 30 -13 -19 0 -53 5 -75 13 -52 17 -36 17 45 0z"/>
<path d="M1265 623 c-29 -67 -37 -136 -26 -220 12 -89 36 -179 52 -189 8 -4 8
-1 1 13 -6 10 -13 38 -17 63 -8 51 4 168 15 150 5 -8 9 -7 13 4 4 9 2 16 -3
16 -6 0 -5 11 2 25 13 29 28 34 21 6 -3 -11 0 -28 6 -38 10 -17 10 -17 11 0 0
9 4 17 9 17 5 0 8 12 5 26 -6 35 -54 153 -65 159 -5 3 -16 -11 -24 -32z m55
-93 c0 -5 -4 -10 -10 -10 -5 0 -10 5 -10 10 0 6 5 10 10 10 6 0 10 -4 10 -10z"/>
<path d="M3688 643 c6 -2 18 -2 25 0 6 3 1 5 -13 5 -14 0 -19 -2 -12 -5z"/>
<path d="M3480 591 c0 -14 24 -30 53 -33 16 -3 32 -10 36 -17 6 -8 17 -11 31
-6 15 5 20 4 16 -4 -4 -6 0 -11 9 -11 12 0 15 -6 10 -20 -7 -22 -3 -24 23 -10
9 5 52 19 94 32 l78 22 -73 19 c-42 11 -87 16 -108 13 -20 -3 -62 1 -93 9 -66
17 -76 18 -76 6z"/>
<path d="M5305 580 c-3 -5 -1 -10 4 -10 6 0 11 5 11 10 0 6 -2 10 -4 10 -3 0
-8 -4 -11 -10z"/>
<path d="M5258 553 c7 -3 16 -2 19 1 4 3 -2 6 -13 5 -11 0 -14 -3 -6 -6z"/>
<path d="M3925 530 c-4 -6 -15 -8 -26 -5 -10 4 -19 2 -19 -4 0 -6 16 -10 35
-9 22 1 35 6 35 15 0 15 -16 17 -25 3z"/>
<path d="M4811 507 c-6 -8 -8 -16 -5 -20 10 -9 34 4 34 19 0 18 -14 18 -29 1z"/>
<path d="M4950 510 c-13 -8 -12 -10 3 -10 9 0 17 5 17 10 0 12 -1 12 -20 0z"/>
<path d="M3792 486 c4 -21 0 -26 -36 -35 -69 -18 -79 -32 -17 -25 58 7 65 -7
14 -27 -34 -13 -22 -23 24 -21 l38 1 -37 -22 c-21 -12 -38 -25 -38 -29 0 -4
21 -13 46 -19 32 -8 42 -15 35 -22 -18 -18 -12 -28 8 -17 13 7 22 7 26 0 3 -5
2 -10 -3 -10 -6 0 -12 -7 -15 -14 -4 -11 -1 -13 11 -9 12 4 10 -2 -8 -22 l-25
-28 25 7 c14 4 43 11 66 16 49 11 94 30 94 42 0 4 12 8 28 8 15 0 34 5 42 10
13 8 12 10 -2 10 -32 0 -12 30 24 34 19 3 19 18 0 23 -12 3 -19 9 -16 14 3 5
-14 9 -38 9 -60 0 -81 15 -45 31 35 16 35 29 0 29 -21 0 -24 3 -15 12 19 19
14 28 -13 28 -14 0 -37 7 -50 16 -13 9 -28 13 -33 10 -6 -3 -15 1 -22 9 -7 8
-26 15 -42 15 -27 0 -30 -3 -26 -24z"/>
<path d="M1303 397 c4 -10 7 -25 7 -34 0 -24 23 -9 27 17 2 13 0 21 -3 17 -4
-4 -14 -1 -22 6 -13 10 -15 9 -9 -6z"/>
<path d="M1295 275 c9 -49 12 -55 31 -55 18 0 18 2 -7 47 -29 53 -32 54 -24 8z"/>
<path d="M4235 270 c-3 -5 -1 -10 4 -10 6 0 11 5 11 10 0 6 -2 10 -4 10 -3 0
-8 -4 -11 -10z"/>
<path d="M4320 239 c0 -5 5 -7 10 -4 6 3 10 8 10 11 0 2 -4 4 -10 4 -5 0 -10
-5 -10 -11z"/>
<path d="M4275 233 c-30 -7 -43 -23 -18 -23 28 0 53 10 53 21 0 9 -3 10 -35 2z"/>
<path d="M4338 193 c-10 -2 -18 -9 -18 -14 0 -6 10 -5 23 2 37 20 36 23 -5 12z"/>
<path d="M2645 10 l-30 -8 32 -1 c17 0 35 4 38 9 7 11 3 11 -40 0z"/>
<path d="M2708 3 c7 -3 16 -2 19 1 4 3 -2 6 -13 5 -11 0 -14 -3 -6 -6z"/>
</g>
</svg>
